<svg width="44" height="44" viewBox="0 0 44 44" fill="none" xmlns="http://www.w3.org/2000/svg">
<rect width="44" height="44" rx="22" fill="#E9EDFC"/>
<path d="M14.3296 34.1611C13.6932 34.1611 13.1466 34.0264 12.6899 33.7568C12.2332 33.4873 11.8813 33.1204 11.6343 32.6562C11.3872 32.1995 11.2637 31.6867 11.2637 31.1177C11.2637 30.8332 11.3236 30.5187 11.4434 30.1743C11.5632 29.8299 11.7391 29.4893 11.9712 29.1523L18.1479 20.3027L19.5742 21.3022L13.2964 30.3203C13.1916 30.4701 13.1279 30.6123 13.1055 30.7471C13.0905 30.8818 13.083 31.0016 13.083 31.1064C13.083 31.4508 13.1953 31.7503 13.4199 32.0049C13.6445 32.2669 13.9515 32.3979 14.3408 32.3979H29.6592C30.0485 32.3979 30.3555 32.2669 30.5801 32.0049C30.8047 31.7503 30.917 31.4508 30.917 31.1064C30.917 31.0016 30.9058 30.8818 30.8833 30.7471C30.8683 30.6123 30.8084 30.4701 30.7036 30.3203L24.4146 21.3022L25.8521 20.3027L31.9277 29.0176C32.1973 29.3994 32.3994 29.7738 32.5342 30.1406C32.6689 30.5075 32.7363 30.8332 32.7363 31.1177C32.7363 31.6867 32.6128 32.1995 32.3657 32.6562C32.1187 33.1204 31.7668 33.4873 31.3101 33.7568C30.8534 34.0264 30.3068 34.1611 29.6704 34.1611H14.3296ZM17.7773 21.3022V11.5542H19.5742V21.3022H17.7773ZM26.2227 21.3022H24.4146V11.5542H26.2227V21.3022ZM17.6987 12.4976C17.4217 12.4976 17.1934 12.404 17.0137 12.2168C16.8415 12.0296 16.7554 11.805 16.7554 11.543C16.7554 11.2884 16.8415 11.0713 17.0137 10.8916C17.1934 10.7044 17.4217 10.6108 17.6987 10.6108H26.29C26.5745 10.6108 26.8029 10.7044 26.9751 10.8916C27.1548 11.0713 27.2446 11.2884 27.2446 11.543C27.2446 11.805 27.1548 12.0296 26.9751 12.2168C26.8029 12.404 26.5745 12.4976 26.29 12.4976H17.6987ZM18.6309 15.4062V14.0923H21.6069C21.7866 14.0923 21.9401 14.1597 22.0674 14.2944C22.2021 14.4217 22.2695 14.5715 22.2695 14.7437C22.2695 14.9308 22.2059 15.0881 22.0786 15.2153C21.9588 15.3426 21.8053 15.4062 21.6182 15.4062H18.6309ZM18.6421 18.6182V17.3042H21.6182C21.7979 17.3042 21.9513 17.3678 22.0786 17.4951C22.2134 17.6224 22.2808 17.7721 22.2808 17.9443C22.2808 18.139 22.2171 18.3 22.0898 18.4272C21.9701 18.5545 21.8166 18.6182 21.6294 18.6182H18.6421ZM18.6421 21.8188V20.5049H21.6294C21.8091 20.5049 21.9626 20.5723 22.0898 20.707C22.2171 20.8343 22.2808 20.984 22.2808 21.1562C22.2808 21.3434 22.2171 21.5007 22.0898 21.6279C21.9701 21.7552 21.8166 21.8188 21.6294 21.8188H18.6421Z" fill="#2135FD"/>
</svg>
