<svg width="44" height="44" viewBox="0 0 44 44" fill="none" xmlns="http://www.w3.org/2000/svg">
<rect width="44" height="44" rx="22" fill="#E9EDFC"/>
<path d="M18.3047 33.9102C17.8535 33.9102 17.499 33.7884 17.2412 33.5449C16.9834 33.3014 16.8581 32.9613 16.8652 32.5244L17.0693 20.4609C17.0693 20.2747 17.0299 20.1136 16.9512 19.9775C16.8724 19.8343 16.7471 19.7269 16.5752 19.6553C16.1025 19.4476 15.7158 19.222 15.415 18.9785C15.1214 18.7279 14.9102 18.4092 14.7812 18.0225C14.6523 17.6357 14.6022 17.1273 14.6309 16.4971L14.9209 9.90137C14.9352 9.66504 15.0068 9.48242 15.1357 9.35352C15.2646 9.22461 15.4401 9.16016 15.6621 9.16016C15.877 9.16016 16.0417 9.22819 16.1562 9.36426C16.278 9.49316 16.3389 9.67936 16.3389 9.92285L16.2637 16.3359C16.2637 16.7441 16.4642 16.9482 16.8652 16.9482C17.0443 16.9482 17.1911 16.8981 17.3057 16.7979C17.4274 16.6904 17.4883 16.5472 17.4883 16.3682L17.5957 9.72949C17.5957 9.50033 17.6602 9.32129 17.7891 9.19238C17.918 9.06348 18.0898 8.99902 18.3047 8.99902C18.5267 8.99902 18.6986 9.06348 18.8203 9.19238C18.9492 9.32129 19.0173 9.50033 19.0244 9.72949L19.1318 16.3682C19.1318 16.5472 19.1891 16.6904 19.3037 16.7979C19.4183 16.8981 19.5687 16.9482 19.7549 16.9482C19.9268 16.9482 20.0664 16.8945 20.1738 16.7871C20.2884 16.6797 20.3457 16.5293 20.3457 16.3359L20.2705 9.92285C20.2705 9.67936 20.3314 9.49316 20.4531 9.36426C20.5749 9.22819 20.7396 9.16016 20.9473 9.16016C21.4199 9.16016 21.667 9.40723 21.6885 9.90137L21.9893 16.4971C22.0107 17.1273 21.957 17.6357 21.8281 18.0225C21.6992 18.4092 21.4844 18.7279 21.1836 18.9785C20.89 19.222 20.5068 19.4476 20.0342 19.6553C19.8695 19.7269 19.7441 19.8343 19.6582 19.9775C19.5794 20.1136 19.54 20.2747 19.54 20.4609L19.7549 32.5244C19.7549 32.9613 19.626 33.3014 19.3682 33.5449C19.1104 33.7884 18.7559 33.9102 18.3047 33.9102ZM26.7158 24.543C26.723 24.3496 26.68 24.1777 26.5869 24.0273C26.501 23.8698 26.3649 23.723 26.1787 23.5869L25.5342 23.1572C25.2692 22.9782 25.0687 22.7526 24.9326 22.4805C24.7965 22.2083 24.7285 21.8861 24.7285 21.5137V20.9873C24.7285 19.9131 24.7965 18.8389 24.9326 17.7646C25.0687 16.6904 25.262 15.6556 25.5127 14.6602C25.7705 13.6576 26.0749 12.7373 26.4258 11.8994C26.7767 11.0544 27.167 10.3275 27.5967 9.71875C27.7757 9.4681 27.9404 9.28548 28.0908 9.1709C28.2412 9.05632 28.4167 8.99902 28.6172 8.99902C28.8177 8.99902 28.9967 9.06706 29.1543 9.20312C29.3118 9.33203 29.3906 9.53255 29.3906 9.80469V32.5889C29.3906 33.0186 29.2581 33.3444 28.9932 33.5664C28.7282 33.7956 28.3701 33.9102 27.9189 33.9102C27.4749 33.9102 27.1204 33.7848 26.8555 33.5342C26.5905 33.2907 26.4652 32.9362 26.4795 32.4707L26.7158 24.543Z" fill="#2135FD"/>
</svg>
