<svg width="44" height="44" viewBox="0 0 44 44" fill="none" xmlns="http://www.w3.org/2000/svg">
<rect width="44" height="44" rx="22" fill="#E9EDFC"/>
<path d="M11.8589 19.1572C11.5819 19.2396 11.3423 19.2284 11.1401 19.1235C10.938 19.0112 10.807 18.8428 10.7471 18.6182C10.6797 18.401 10.6984 18.1914 10.8032 17.9893C10.908 17.7871 11.0915 17.6523 11.3535 17.585C12.1995 17.3229 13.0793 17.117 13.9927 16.9673C14.9136 16.8175 15.8307 16.7427 16.7441 16.7427C17.4554 16.7427 18.1143 16.7689 18.7207 16.8213C19.3271 16.8737 19.9149 16.9299 20.4839 16.9897C21.0604 17.0422 21.6556 17.0684 22.2695 17.0684C22.7936 17.0684 23.2091 16.9224 23.5161 16.6304C23.8306 16.3384 23.9878 15.9528 23.9878 15.4736C23.9878 14.987 23.8343 14.6014 23.5273 14.3169C23.2279 14.0324 22.8573 13.8901 22.4155 13.8901C22.0936 13.8901 21.7979 13.9837 21.5283 14.1709C21.2663 14.3506 21.0754 14.5752 20.9556 14.8447C20.8208 15.0918 20.6411 15.249 20.4165 15.3164C20.1919 15.3838 19.9785 15.3613 19.7764 15.249C19.5592 15.1367 19.4282 14.9757 19.3833 14.7661C19.3384 14.549 19.3683 14.3356 19.4731 14.126C19.7277 13.5794 20.1208 13.1265 20.6523 12.7671C21.1839 12.4077 21.7716 12.228 22.4155 12.228C23.0145 12.228 23.5573 12.3703 24.0439 12.6548C24.5381 12.9318 24.9274 13.3136 25.2119 13.8003C25.5039 14.2869 25.6499 14.8447 25.6499 15.4736C25.6499 16.0801 25.5114 16.6304 25.2344 17.1245C24.9574 17.6187 24.5643 18.008 24.0552 18.2925C23.5535 18.577 22.9583 18.7192 22.2695 18.7192C21.6182 18.7192 21.0005 18.693 20.4165 18.6406C19.84 18.5882 19.256 18.5358 18.6646 18.4834C18.0731 18.4235 17.4329 18.3936 16.7441 18.3936C15.1045 18.3936 13.4761 18.6481 11.8589 19.1572ZM29.4683 24.5366C28.5174 24.5366 27.5815 24.4393 26.6606 24.2446C25.7397 24.05 24.8114 23.8254 23.8755 23.5708C22.9471 23.3088 21.985 23.0804 20.9893 22.8857C19.9935 22.6911 18.9378 22.5938 17.8223 22.5938C16.7217 22.5938 15.6847 22.6724 14.7114 22.8296C13.7381 22.9868 12.7873 23.2376 11.8589 23.582C11.5894 23.6719 11.3498 23.6644 11.1401 23.5596C10.938 23.4548 10.807 23.2863 10.7471 23.0542C10.6797 22.8371 10.6984 22.6312 10.8032 22.4365C10.9155 22.2344 11.099 22.0884 11.3535 21.9985C12.3643 21.6541 13.4049 21.3921 14.4756 21.2124C15.5462 21.0252 16.6618 20.9316 17.8223 20.9316C18.9528 20.9316 20.0347 21.0327 21.0679 21.2349C22.1011 21.4295 23.0968 21.6541 24.0552 21.9087C25.0135 22.1632 25.9419 22.3916 26.8403 22.5938C27.7388 22.7884 28.6147 22.8857 29.4683 22.8857C30.3517 22.8857 31.0555 22.6611 31.5796 22.2119C32.1037 21.7627 32.3657 21.1787 32.3657 20.46C32.3657 19.9883 32.2609 19.5728 32.0513 19.2134C31.8416 18.8465 31.5534 18.562 31.1865 18.3599C30.8197 18.1577 30.4154 18.0566 29.9736 18.0566C29.6068 18.0566 29.2661 18.1353 28.9517 18.2925C28.6372 18.4497 28.3714 18.6668 28.1543 18.9438C27.9372 19.2209 27.7949 19.5391 27.7275 19.8984C27.6602 20.1829 27.5291 20.3926 27.3345 20.5273C27.1473 20.6546 26.9339 20.6921 26.6943 20.6396C26.4772 20.5947 26.3088 20.4749 26.189 20.2803C26.0767 20.0856 26.0467 19.861 26.0991 19.6064C26.2114 19 26.4473 18.4572 26.8066 17.978C27.166 17.4914 27.6152 17.1095 28.1543 16.8325C28.7008 16.548 29.3073 16.4058 29.9736 16.4058C30.7223 16.4058 31.4036 16.5817 32.0176 16.9336C32.6315 17.2855 33.1182 17.7684 33.4775 18.3823C33.8444 18.9888 34.0278 19.6813 34.0278 20.46C34.0278 21.2536 33.8332 21.9574 33.4438 22.5713C33.0545 23.1852 32.5155 23.6681 31.8267 24.02C31.1453 24.3644 30.3592 24.5366 29.4683 24.5366ZM22.2808 32.5664C21.4422 32.5664 20.7459 32.3044 20.1919 31.7803C19.6379 31.2637 19.2935 30.6273 19.1587 29.8711C19.0988 29.6165 19.1213 29.3844 19.2261 29.1748C19.3309 28.9652 19.5181 28.8379 19.7876 28.793C20.0422 28.7555 20.2593 28.8079 20.439 28.9502C20.6187 29.085 20.7347 29.2684 20.7871 29.5005C20.877 29.9422 21.0454 30.2866 21.2925 30.5337C21.547 30.7882 21.8765 30.9155 22.2808 30.9155C22.7 30.9155 23.0557 30.777 23.3477 30.5C23.6471 30.2305 23.7969 29.8524 23.7969 29.3657C23.7969 28.5721 23.269 27.9469 22.2134 27.4902C21.1577 27.026 19.6304 26.7939 17.6313 26.7939C16.6281 26.7939 15.6361 26.8763 14.6553 27.041C13.682 27.2057 12.7498 27.4491 11.8589 27.771C11.5894 27.8608 11.3498 27.8534 11.1401 27.7485C10.938 27.6362 10.807 27.4678 10.7471 27.2432C10.6797 27.026 10.6984 26.8201 10.8032 26.6255C10.9155 26.4233 11.099 26.2773 11.3535 26.1875C12.3118 25.8581 13.3376 25.5998 14.4307 25.4126C15.5238 25.2254 16.5907 25.1318 17.6313 25.1318C20.1545 25.1318 22.0861 25.4987 23.4263 26.2324C24.7739 26.9661 25.4478 28.0106 25.4478 29.3657C25.4478 29.9946 25.3092 30.5487 25.0322 31.0278C24.7552 31.507 24.3771 31.8813 23.8979 32.1509C23.4188 32.4279 22.8797 32.5664 22.2808 32.5664Z" fill="#2135FD"/>
</svg>
