<svg width="44" height="44" viewBox="0 0 44 44" fill="none" xmlns="http://www.w3.org/2000/svg">
<rect width="44" height="44" rx="22" fill="#E9EDFC"/>
<path d="M10.2109 25.9297C10.2109 25.6484 10.2969 25.4219 10.4688 25.25C10.6406 25.0781 10.8672 24.9922 11.1484 24.9922H12.3555V22.9883H11.1484C10.8672 22.9883 10.6406 22.9023 10.4688 22.7305C10.2969 22.5586 10.2109 22.332 10.2109 22.0508C10.2109 21.7695 10.2969 21.543 10.4688 21.3711C10.6406 21.1914 10.8672 21.1016 11.1484 21.1016H12.3555V19.1094H11.1484C10.8672 19.1094 10.6406 19.0234 10.4688 18.8516C10.2969 18.6719 10.2109 18.4414 10.2109 18.1602C10.2109 17.8789 10.2969 17.6523 10.4688 17.4805C10.6406 17.3086 10.8672 17.2227 11.1484 17.2227H12.3555V13.3438C12.3555 13.0625 12.4414 12.8359 12.6133 12.6641C12.7852 12.4922 13.0117 12.4062 13.293 12.4062H17.1719V11.2109C17.1719 10.9297 17.2578 10.7031 17.4297 10.5312C17.6094 10.3516 17.8398 10.2617 18.1211 10.2617C18.4023 10.2617 18.6289 10.3516 18.8008 10.5312C18.9727 10.7031 19.0586 10.9297 19.0586 11.2109V12.4062H21.0625V11.2109C21.0625 10.9297 21.1484 10.7031 21.3203 10.5312C21.4922 10.3516 21.7188 10.2617 22 10.2617C22.2812 10.2617 22.5078 10.3516 22.6797 10.5312C22.8594 10.7031 22.9492 10.9297 22.9492 11.2109V12.4062H24.9414V11.2109C24.9414 10.9297 25.0273 10.7031 25.1992 10.5312C25.3711 10.3516 25.5977 10.2617 25.8789 10.2617C26.1602 10.2617 26.3867 10.3516 26.5586 10.5312C26.7383 10.7031 26.8281 10.9297 26.8281 11.2109V12.4062H30.707C30.9883 12.4062 31.2148 12.4922 31.3867 12.6641C31.5586 12.8359 31.6445 13.0625 31.6445 13.3438V17.2109H32.8516C33.1328 17.2109 33.3594 17.2969 33.5312 17.4688C33.7031 17.6406 33.7891 17.8672 33.7891 18.1484C33.7891 18.4297 33.7031 18.6602 33.5312 18.8398C33.3594 19.0117 33.1328 19.0977 32.8516 19.0977H31.6445V21.0898H32.8516C33.1328 21.0898 33.3594 21.1797 33.5312 21.3594C33.7031 21.5312 33.7891 21.7578 33.7891 22.0391C33.7891 22.3203 33.7031 22.5469 33.5312 22.7188C33.3594 22.8906 33.1328 22.9766 32.8516 22.9766H31.6445V24.9805H32.8516C33.1328 24.9805 33.3594 25.0664 33.5312 25.2383C33.7031 25.4102 33.7891 25.6367 33.7891 25.918C33.7891 26.1992 33.7031 26.4297 33.5312 26.6094C33.3594 26.7812 33.1328 26.8672 32.8516 26.8672H31.6445V30.7695C31.6445 31.0508 31.5586 31.2734 31.3867 31.4375C31.2148 31.6094 30.9883 31.6953 30.707 31.6953H26.8281V32.9023C26.8281 33.1836 26.7383 33.4102 26.5586 33.582C26.3867 33.7539 26.1602 33.8398 25.8789 33.8398C25.5977 33.8398 25.3711 33.7539 25.1992 33.582C25.0273 33.4102 24.9414 33.1836 24.9414 32.9023V31.6953H22.9492V32.9023C22.9492 33.1836 22.8594 33.4102 22.6797 33.582C22.5078 33.7539 22.2812 33.8398 22 33.8398C21.7188 33.8398 21.4922 33.7539 21.3203 33.582C21.1484 33.4102 21.0625 33.1836 21.0625 32.9023V31.6953H19.0586V32.9023C19.0586 33.1836 18.9727 33.4102 18.8008 33.582C18.6289 33.7539 18.4023 33.8398 18.1211 33.8398C17.8398 33.8398 17.6094 33.7539 17.4297 33.582C17.2578 33.4102 17.1719 33.1836 17.1719 32.9023V31.6953H13.293C13.0117 31.6953 12.7852 31.6094 12.6133 31.4375C12.4414 31.2734 12.3555 31.0508 12.3555 30.7695V26.8789H11.1484C10.8672 26.8789 10.6406 26.793 10.4688 26.6211C10.2969 26.4414 10.2109 26.2109 10.2109 25.9297ZM14.2422 29.4688C14.2422 29.6953 14.3555 29.8086 14.582 29.8086H29.418C29.6445 29.8086 29.7578 29.6953 29.7578 29.4688V14.6445C29.7578 14.4102 29.6445 14.293 29.418 14.293H14.582C14.3555 14.293 14.2422 14.4102 14.2422 14.6445V29.4688ZM17.6523 27.3008C17.0586 27.3008 16.7617 27 16.7617 26.3984V17.7031C16.7617 17.1094 17.0586 16.8125 17.6523 16.8125H26.3711C26.957 16.8125 27.25 17.1094 27.25 17.7031V26.3984C27.25 27 26.957 27.3008 26.3711 27.3008H17.6523ZM18.2969 25.4844C18.2969 25.6719 18.3906 25.7656 18.5781 25.7656H25.4336C25.6211 25.7656 25.7148 25.6719 25.7148 25.4844V18.6289C25.7148 18.4414 25.6211 18.3477 25.4336 18.3477H18.5781C18.3906 18.3477 18.2969 18.4414 18.2969 18.6289V25.4844Z" fill="#2135FD"/>
</svg>
