<svg width="44" height="44" viewBox="0 0 44 44" fill="none" xmlns="http://www.w3.org/2000/svg">
<rect width="44" height="44" rx="22" fill="#E9EDFC"/>
<path d="M10.2324 30.1816C9.29492 30.1816 8.57878 29.9342 8.08398 29.4395C7.58919 28.9447 7.3418 28.2318 7.3418 27.3008V14.3906C7.3418 13.4531 7.58919 12.737 8.08398 12.2422C8.57878 11.7474 9.29492 11.5 10.2324 11.5H24.7344C25.6719 11.5 26.388 11.7507 26.8828 12.252C27.3776 12.7467 27.625 13.4596 27.625 14.3906V27.8379L25.7109 28.7754V14.4883C25.7109 14.1237 25.6198 13.8535 25.4375 13.6777C25.2552 13.502 24.9883 13.4141 24.6367 13.4141H10.3203C9.96875 13.4141 9.70182 13.502 9.51953 13.6777C9.34375 13.8535 9.25586 14.1237 9.25586 14.4883V27.2031C9.25586 27.5612 9.34375 27.8281 9.51953 28.0039C9.70182 28.1797 9.96875 28.2676 10.3203 28.2676H12.2734V30.1816H10.2324ZM26.5898 18.8145V16.9004H30.2227C30.737 16.9004 31.1764 16.972 31.541 17.1152C31.9056 17.252 32.2441 17.4896 32.5566 17.8281L35.9258 21.6367C36.2122 21.9622 36.4043 22.2747 36.502 22.5742C36.6061 22.8672 36.6582 23.2708 36.6582 23.7852V27.3008C36.6582 28.2318 36.4108 28.9447 35.916 29.4395C35.4277 29.9342 34.7116 30.1816 33.7676 30.1816H32.1758V28.2676H33.6797C34.0312 28.2676 34.2949 28.1797 34.4707 28.0039C34.653 27.8281 34.7441 27.5612 34.7441 27.2031V23.8438C34.7441 23.6484 34.7083 23.4564 34.6367 23.2676C34.5716 23.0723 34.4707 22.8965 34.334 22.7402L31.3066 19.3418C31.1178 19.127 30.9258 18.987 30.7305 18.9219C30.5352 18.8503 30.3105 18.8145 30.0566 18.8145H26.5898ZM29.4707 23.8828C29.2038 23.8828 28.9889 23.8047 28.8262 23.6484C28.6699 23.4857 28.5918 23.2708 28.5918 23.0039V19.8105H29.7734C29.9297 19.8105 30.0697 19.8464 30.1934 19.918C30.3236 19.9831 30.444 20.0742 30.5547 20.1914L33.3672 23.3652C33.4388 23.4434 33.4941 23.5215 33.5332 23.5996C33.5788 23.6712 33.6016 23.7656 33.6016 23.8828H29.4707ZM14.8516 32.9355C14.194 32.9355 13.5983 32.776 13.0645 32.457C12.5306 32.1445 12.1042 31.7214 11.7852 31.1875C11.4661 30.6536 11.3066 30.0612 11.3066 29.4102C11.3066 28.7591 11.4661 28.1667 11.7852 27.6328C12.1042 27.099 12.5306 26.6758 13.0645 26.3633C13.5983 26.0443 14.194 25.8848 14.8516 25.8848C15.4961 25.8848 16.0853 26.0443 16.6191 26.3633C17.153 26.6758 17.5762 27.099 17.8887 27.6328C18.2077 28.1667 18.3672 28.7591 18.3672 29.4102C18.3672 30.0612 18.2077 30.6536 17.8887 31.1875C17.5762 31.7214 17.153 32.1445 16.6191 32.457C16.0853 32.776 15.4961 32.9355 14.8516 32.9355ZM14.8516 31.3438C15.1966 31.3438 15.5156 31.2559 15.8086 31.0801C16.1081 30.9043 16.3424 30.6699 16.5117 30.377C16.681 30.084 16.7656 29.7617 16.7656 29.4102C16.7656 29.0521 16.681 28.7266 16.5117 28.4336C16.3424 28.1406 16.1081 27.9095 15.8086 27.7402C15.5156 27.5645 15.1966 27.4766 14.8516 27.4766C14.4935 27.4766 14.168 27.5645 13.875 27.7402C13.582 27.9095 13.3477 28.1406 13.1719 28.4336C12.9961 28.7266 12.9082 29.0521 12.9082 29.4102C12.9082 29.7617 12.9961 30.084 13.1719 30.377C13.3477 30.6699 13.582 30.9043 13.875 31.0801C14.168 31.2559 14.4935 31.3438 14.8516 31.3438ZM29.207 32.9355C28.5625 32.9355 27.9701 32.776 27.4297 32.457C26.8958 32.1445 26.4694 31.7214 26.1504 31.1875C25.8314 30.6536 25.6719 30.0612 25.6719 29.4102C25.6719 28.7591 25.8314 28.1667 26.1504 27.6328C26.4694 27.099 26.8958 26.6758 27.4297 26.3633C27.9701 26.0443 28.5625 25.8848 29.207 25.8848C29.8581 25.8848 30.4473 26.0443 30.9746 26.3633C31.5085 26.6758 31.9349 27.099 32.2539 27.6328C32.5729 28.1667 32.7324 28.7591 32.7324 29.4102C32.7324 30.0612 32.5729 30.6536 32.2539 31.1875C31.9349 31.7214 31.5085 32.1445 30.9746 32.457C30.4473 32.776 29.8581 32.9355 29.207 32.9355ZM29.207 31.3438C29.5651 31.3438 29.8874 31.2559 30.1738 31.0801C30.4668 30.9043 30.6979 30.6699 30.8672 30.377C31.043 30.084 31.1309 29.7617 31.1309 29.4102C31.1309 29.0521 31.043 28.7266 30.8672 28.4336C30.6914 28.1406 30.457 27.9095 30.1641 27.7402C29.8776 27.5645 29.5586 27.4766 29.207 27.4766C28.849 27.4766 28.5234 27.5645 28.2305 27.7402C27.944 27.9095 27.7129 28.1406 27.5371 28.4336C27.3613 28.7266 27.2734 29.0521 27.2734 29.4102C27.2734 29.7617 27.3613 30.084 27.5371 30.377C27.7129 30.6699 27.944 30.9043 28.2305 31.0801C28.5234 31.2559 28.849 31.3438 29.207 31.3438ZM17.5469 30.1816V28.2676H26.5117V30.1816H17.5469Z" fill="#2135FD"/>
</svg>
