<svg width="44" height="44" viewBox="0 0 44 44" fill="none" xmlns="http://www.w3.org/2000/svg">
<rect width="44" height="44" rx="22" fill="#E9EDFC"/>
<path d="M10.9873 17.0005C10.9873 16.8159 10.9941 16.5254 11.0078 16.1289C11.0283 15.7256 11.0591 15.2983 11.1001 14.8472C11.1479 14.396 11.2163 14.0029 11.3052 13.668C11.4077 13.2441 11.5991 12.9536 11.8794 12.7964C12.1597 12.6323 12.4604 12.5879 12.7817 12.6631C13.103 12.7383 13.3799 12.9126 13.6123 13.186C14.1592 13.8013 14.7607 14.2422 15.417 14.5088C16.0732 14.7686 16.791 14.8984 17.5703 14.8984C18.5 14.8984 19.3921 14.8198 20.2466 14.6626C21.1079 14.5054 21.9624 14.4268 22.8101 14.4268C24.0405 14.4268 25.1753 14.6147 26.2144 14.9907C27.2534 15.3599 28.1523 15.8862 28.9111 16.5698C29.6768 17.2466 30.2715 18.0464 30.6953 18.9692C31.1191 19.8921 31.3311 20.9038 31.3311 22.0044C31.3311 23.146 31.1191 24.1953 30.6953 25.1523C30.2715 26.1025 29.6768 26.9263 28.9111 27.6235C28.1523 28.3208 27.25 28.8608 26.2041 29.2437C25.165 29.6265 24.02 29.8179 22.769 29.8179C20.9849 29.8179 19.3682 29.5171 17.9189 28.9155C16.4766 28.3071 15.2358 27.439 14.1968 26.311C13.1646 25.1831 12.3716 23.833 11.8179 22.2607C11.2642 20.6885 10.9873 18.9351 10.9873 17.0005ZM12.833 17.0005C12.833 18.6821 13.062 20.1997 13.52 21.5532C13.9849 22.8999 14.6514 24.0518 15.5195 25.0088C16.3877 25.9658 17.4302 26.7007 18.647 27.2134C19.8706 27.7261 21.2446 27.9824 22.769 27.9824C24.0952 27.9824 25.2607 27.7295 26.2656 27.2236C27.2773 26.7178 28.0669 26.0171 28.6343 25.1216C29.2017 24.2192 29.4854 23.1802 29.4854 22.0044C29.4854 20.8833 29.2017 19.8921 28.6343 19.0308C28.0669 18.1626 27.2808 17.4858 26.2759 17.0005C25.271 16.5083 24.1157 16.2622 22.8101 16.2622C22.4683 16.2622 22.1162 16.2827 21.7539 16.3237C21.3984 16.3647 21.019 16.4126 20.6157 16.4673C20.1577 16.5288 19.6758 16.5903 19.1699 16.6519C18.6641 16.7065 18.1309 16.7339 17.5703 16.7339C16.7773 16.7339 15.981 16.604 15.1812 16.3442C14.3813 16.0845 13.6978 15.7119 13.1304 15.2266C13.0005 15.1309 12.9287 15.1616 12.915 15.3188C12.874 15.5513 12.8501 15.8179 12.8433 16.1187C12.8364 16.4194 12.833 16.7134 12.833 17.0005ZM17.0063 19.4922C16.9448 19.3076 16.9585 19.1572 17.0474 19.041C17.1362 18.918 17.2524 18.853 17.396 18.8462C17.5396 18.8394 17.6763 18.918 17.8062 19.082C18.1753 19.5537 18.6025 19.9365 19.0879 20.2305C19.5801 20.5244 20.1235 20.7568 20.7183 20.9277C21.3198 21.0986 21.9658 21.2388 22.6562 21.3481C24.5908 21.6489 26.1733 22.0762 27.4038 22.6299C28.6411 23.1836 29.605 23.9287 30.2954 24.8652C30.603 25.2822 30.9141 25.7368 31.2285 26.229C31.5498 26.7144 31.8438 27.2031 32.1104 27.6953C32.3838 28.1807 32.6025 28.6489 32.7666 29.1001C32.9307 29.5444 33.0127 29.9409 33.0127 30.2896C33.0127 30.7476 32.8657 31.1406 32.5718 31.4688C32.2778 31.8037 31.9258 31.9712 31.5156 31.9712C31.3037 31.9712 31.1089 31.9131 30.9312 31.7969C30.7603 31.6807 30.6304 31.4893 30.5415 31.2227C30.3296 30.5459 30.1416 29.9067 29.9775 29.3052C29.8135 28.6968 29.6221 28.126 29.4033 27.5928C29.1846 27.0596 28.8838 26.5571 28.501 26.0854C28.166 25.6685 27.8071 25.3062 27.4243 24.9985C27.0483 24.6841 26.6177 24.4106 26.1323 24.1782C25.647 23.939 25.0728 23.7168 24.4097 23.5117C23.7466 23.3066 22.9673 23.0981 22.0718 22.8862C21.2446 22.688 20.4858 22.4487 19.7954 22.1685C19.105 21.8813 18.5171 21.5225 18.0317 21.0918C17.5532 20.6611 17.2114 20.1279 17.0063 19.4922Z" fill="#2135FD"/>
</svg>
