<svg width="44" height="44" viewBox="0 0 44 44" fill="none" xmlns="http://www.w3.org/2000/svg">
<rect width="44" height="44" rx="22" fill="#E9EDFC"/>
<path d="M19.6416 22C19.6416 19.9753 19.8434 18.2077 20.2471 16.6973C20.6507 15.1868 21.2171 14.0182 21.9463 13.1914C22.682 12.3581 23.5479 11.9414 24.5439 11.9414C25.5335 11.9414 26.3962 12.3581 27.1318 13.1914C27.8675 14.0182 28.4372 15.1868 28.8408 16.6973C29.2445 18.2077 29.4463 19.9753 29.4463 22C29.4463 24.0247 29.2445 25.7923 28.8408 27.3027C28.4372 28.8066 27.8675 29.9753 27.1318 30.8086C26.3962 31.6419 25.5335 32.0586 24.5439 32.0586C23.5479 32.0586 22.682 31.6419 21.9463 30.8086C21.2171 29.9753 20.6507 28.8066 20.2471 27.3027C19.8434 25.7923 19.6416 24.0247 19.6416 22ZM21.5264 22C21.5264 23.6341 21.6533 25.0632 21.9072 26.2871C22.1611 27.5046 22.5127 28.4486 22.9619 29.1191C23.4111 29.7962 23.9385 30.1348 24.5439 30.1348C25.1429 30.1348 25.6702 29.7962 26.126 29.1191C26.5817 28.4486 26.9333 27.5046 27.1807 26.2871C27.4346 25.0632 27.5615 23.6341 27.5615 22C27.5615 20.3659 27.4346 18.9401 27.1807 17.7227C26.9333 16.4987 26.5817 15.5482 26.126 14.8711C25.6702 14.194 25.1429 13.8555 24.5439 13.8555C23.9385 13.8555 23.4111 14.194 22.9619 14.8711C22.5127 15.5482 22.1611 16.4987 21.9072 17.7227C21.6533 18.9401 21.5264 20.3659 21.5264 22ZM14.5537 22C14.5537 19.9102 14.762 18.1133 15.1787 16.6094C15.5954 15.1055 16.2464 13.9531 17.1318 13.1523C18.0238 12.3451 19.1729 11.9414 20.5791 11.9414H24.5439V13.8555H20.5791C19.583 13.8555 18.7822 14.1842 18.1768 14.8418C17.5778 15.4993 17.1416 16.4368 16.8682 17.6543C16.6012 18.8652 16.4678 20.3138 16.4678 22C16.4678 23.6862 16.6012 25.138 16.8682 26.3555C17.1416 27.5664 17.5778 28.4974 18.1768 29.1484C18.7822 29.806 19.583 30.1348 20.5791 30.1348H24.5439V32.0586H20.5791C19.1729 32.0586 18.0238 31.6549 17.1318 30.8477C16.2464 30.0469 15.5954 28.8945 15.1787 27.3906C14.762 25.8867 14.5537 24.0898 14.5537 22ZM19.4072 16.5703C19.2249 16.5703 19.0654 16.5052 18.9287 16.375C18.7985 16.2448 18.7334 16.0853 18.7334 15.8965C18.7334 15.7142 18.7985 15.5579 18.9287 15.4277C19.0654 15.291 19.2249 15.2227 19.4072 15.2227H21.1943V16.5703H19.4072ZM18.7725 19.4609C18.5902 19.4609 18.4307 19.3926 18.2939 19.2559C18.1637 19.1191 18.0986 18.9596 18.0986 18.7773C18.0986 18.5885 18.1637 18.429 18.2939 18.2988C18.4307 18.1686 18.5902 18.1035 18.7725 18.1035H20.5693V19.4609H18.7725ZM18.5283 22.5762C18.346 22.5762 18.1898 22.5111 18.0596 22.3809C17.9294 22.2441 17.8643 22.0846 17.8643 21.9023C17.8643 21.7135 17.9294 21.554 18.0596 21.4238C18.1898 21.2936 18.346 21.2285 18.5283 21.2285H20.3154V22.5762H18.5283ZM18.7725 25.7012C18.5902 25.7012 18.4307 25.6361 18.2939 25.5059C18.1637 25.3691 18.0986 25.2096 18.0986 25.0273C18.0986 24.8385 18.1637 24.679 18.2939 24.5488C18.4307 24.4121 18.5902 24.3438 18.7725 24.3438H20.5693V25.7012H18.7725ZM19.4072 28.582C19.2249 28.582 19.0654 28.5169 18.9287 28.3867C18.7985 28.25 18.7334 28.0905 18.7334 27.9082C18.7334 27.7194 18.7985 27.5599 18.9287 27.4297C19.0654 27.2995 19.2249 27.2344 19.4072 27.2344H21.1943V28.582H19.4072Z" fill="#2135FD"/>
</svg>
