<svg width="44" height="44" viewBox="0 0 44 44" fill="none" xmlns="http://www.w3.org/2000/svg">
<rect width="44" height="44" rx="22" fill="#E9EDFC"/>
<path d="M19.6429 14.8571V12.4797C19.6429 12.3992 19.6614 12.3201 19.7014 12.2502C20.1903 11.3957 21.5413 9.88528 23.656 9.55573C23.9399 9.51149 24.1825 9.74187 24.1825 10.0292C24.1825 11.8042 24.1825 13.9387 24.1825 14.8571M19.6429 14.8571H18.3968C18.1207 14.8571 17.8968 15.081 17.8968 15.3571V24.8571M19.6429 14.8571H24.1825M24.1825 14.8571H25.6032C25.8793 14.8571 26.1032 15.081 26.1032 15.3571V24.8571M26.1032 24.8571H27C27.2761 24.8571 27.5 25.081 27.5 25.3571V34C27.5 34.2761 27.2761 34.5 27 34.5H17C16.7239 34.5 16.5 34.2761 16.5 34V25.3571C16.5 25.081 16.7239 24.8571 17 24.8571H17.8968M26.1032 24.8571H17.8968" stroke="#2135FD" stroke-width="1.8"/>
</svg>
