<svg width="44" height="44" viewBox="0 0 44 44" fill="none" xmlns="http://www.w3.org/2000/svg">
<rect width="44" height="44" rx="22" fill="#E9EDFC"/>
<path d="M15.6772 35.5312C15.1382 35.5312 14.7077 35.3553 14.3857 35.0034C14.0713 34.6515 13.9141 34.1836 13.9141 33.5996V11.1836C13.9141 10.5921 14.0713 10.1242 14.3857 9.77979C14.7077 9.4279 15.1382 9.25195 15.6772 9.25195H28.3115C28.8581 9.25195 29.2886 9.4279 29.603 9.77979C29.9175 10.1242 30.0747 10.5921 30.0747 11.1836V33.5996C30.0747 34.1836 29.9175 34.6515 29.603 35.0034C29.2886 35.3553 28.8581 35.5312 28.3115 35.5312H15.6772ZM16.2388 33.813H27.75C27.9596 33.813 28.1131 33.7643 28.2104 33.667C28.3153 33.5697 28.3677 33.4162 28.3677 33.2065V11.5767C28.3677 11.367 28.3153 11.2135 28.2104 11.1162C28.1131 11.0114 27.9596 10.959 27.75 10.959H16.2388C16.0366 10.959 15.8831 11.0114 15.7783 11.1162C15.6735 11.2135 15.6211 11.367 15.6211 11.5767V33.2065C15.6211 33.4162 15.6735 33.5697 15.7783 33.667C15.8831 33.7643 16.0366 33.813 16.2388 33.813ZM18.4961 17.147C18.1966 17.147 18.0469 16.9935 18.0469 16.6865V14.564C18.0469 14.257 18.1966 14.1035 18.4961 14.1035H20.6748C20.9818 14.1035 21.1353 14.257 21.1353 14.564V16.6865C21.1353 16.9935 20.9818 17.147 20.6748 17.147H18.4961ZM23.3027 17.147C23.0033 17.147 22.8535 16.9935 22.8535 16.6865V14.564C22.8535 14.257 23.0033 14.1035 23.3027 14.1035H25.4814C25.7884 14.1035 25.9419 14.257 25.9419 14.564V16.6865C25.9419 16.9935 25.7884 17.147 25.4814 17.147H23.3027ZM18.4961 21.5942C18.1966 21.5942 18.0469 21.4408 18.0469 21.1338V19.0112C18.0469 18.7043 18.1966 18.5508 18.4961 18.5508H20.6748C20.9818 18.5508 21.1353 18.7043 21.1353 19.0112V21.1338C21.1353 21.4408 20.9818 21.5942 20.6748 21.5942H18.4961ZM23.3027 21.5942C23.0033 21.5942 22.8535 21.4408 22.8535 21.1338V19.0112C22.8535 18.7043 23.0033 18.5508 23.3027 18.5508H25.4814C25.7884 18.5508 25.9419 18.7043 25.9419 19.0112V21.1338C25.9419 21.4408 25.7884 21.5942 25.4814 21.5942H23.3027ZM18.4961 26.0415C18.1966 26.0415 18.0469 25.888 18.0469 25.5811V23.4585C18.0469 23.1515 18.1966 22.998 18.4961 22.998H20.6748C20.9818 22.998 21.1353 23.1515 21.1353 23.4585V25.5811C21.1353 25.888 20.9818 26.0415 20.6748 26.0415H18.4961ZM23.3027 26.0415C23.0033 26.0415 22.8535 25.888 22.8535 25.5811V23.4585C22.8535 23.1515 23.0033 22.998 23.3027 22.998H25.4814C25.7884 22.998 25.9419 23.1515 25.9419 23.4585V25.5811C25.9419 25.888 25.7884 26.0415 25.4814 26.0415H23.3027ZM18.6982 34.6328V30.6572C18.6982 30.2005 18.7993 29.8636 19.0015 29.6465C19.2111 29.4219 19.5368 29.3096 19.9785 29.3096H24.0215C24.4632 29.3096 24.7852 29.4219 24.9873 29.6465C25.1969 29.8636 25.3018 30.2005 25.3018 30.6572V34.6328H23.9092V31.0503C23.9092 30.8257 23.7931 30.7134 23.561 30.7134H20.439C20.2069 30.7134 20.0908 30.8257 20.0908 31.0503V34.6328H18.6982Z" fill="#2135FD"/>
</svg>
