<svg width="44" height="44" viewBox="0 0 44 44" fill="none" xmlns="http://www.w3.org/2000/svg">
<rect width="44" height="44" rx="22" fill="#E9EDFC"/>
<path d="M27.0586 24.5957C26.2578 24.5957 25.4993 24.4297 24.7832 24.0977C24.0671 23.7591 23.4421 23.2546 22.9082 22.584C22.6999 22.3431 22.5371 22.1901 22.4199 22.125C22.3027 22.0599 22.1009 22.0273 21.8145 22.0273H19.627C19.1126 22.0273 18.696 21.8776 18.377 21.5781C18.0579 21.2721 17.8984 20.875 17.8984 20.3867V17.6035C17.8984 17.1152 18.0579 16.7214 18.377 16.4219C18.696 16.1224 19.1126 15.9727 19.627 15.9727H21.8145C22.1009 15.9727 22.3027 15.9401 22.4199 15.875C22.5371 15.8034 22.6999 15.6439 22.9082 15.3965C23.4355 14.7324 24.0573 14.2344 24.7734 13.9023C25.4896 13.5638 26.2513 13.3945 27.0586 13.3945H29.373C29.64 13.3945 29.8548 13.4759 30.0176 13.6387C30.1868 13.8014 30.2715 14.013 30.2715 14.2734V23.707C30.2715 23.974 30.1868 24.1888 30.0176 24.3516C29.8548 24.5143 29.64 24.5957 29.373 24.5957H27.0586ZM27.0586 22.9453H28.2793C28.5072 22.9453 28.6211 22.8379 28.6211 22.623V15.3574C28.6211 15.1491 28.5072 15.0449 28.2793 15.0449H27.0586C26.668 15.0449 26.3034 15.0938 25.9648 15.1914C25.6328 15.2826 25.3203 15.429 25.0273 15.6309C24.7344 15.8327 24.4577 16.0964 24.1973 16.4219C23.8587 16.8581 23.5072 17.1673 23.1426 17.3496C22.7845 17.5319 22.3418 17.623 21.8145 17.623H19.8906C19.6628 17.623 19.5488 17.7305 19.5488 17.9453V19.9863C19.5488 20.2402 19.679 20.3672 19.9395 20.3672H21.8145C22.3418 20.3672 22.7845 20.4616 23.1426 20.6504C23.5072 20.8327 23.8587 21.1387 24.1973 21.5684C24.4577 21.8874 24.7344 22.151 25.0273 22.3594C25.3203 22.5612 25.6328 22.7109 25.9648 22.8086C26.3034 22.8997 26.668 22.9453 27.0586 22.9453ZM29.7734 17.916V15.875H33.2109C33.4909 15.875 33.7318 15.9759 33.9336 16.1777C34.1354 16.373 34.2363 16.6139 34.2363 16.9004C34.2363 17.1868 34.1354 17.4277 33.9336 17.623C33.7318 17.8184 33.4909 17.916 33.2109 17.916H29.7734ZM29.7734 22.1445V20.084H33.2109C33.4909 20.084 33.7318 20.1849 33.9336 20.3867C34.1354 20.582 34.2363 20.8262 34.2363 21.1191C34.2363 21.3991 34.1354 21.64 33.9336 21.8418C33.7318 22.0436 33.4909 22.1445 33.2109 22.1445H29.7734ZM9.75391 30.5039V28.6973H18.1328C18.7513 28.6973 19.2363 28.5378 19.5879 28.2188C19.9395 27.8932 20.1152 27.4733 20.1152 26.959C20.1152 26.4447 19.9395 26.0247 19.5879 25.6992C19.2363 25.3672 18.7513 25.2012 18.1328 25.2012H13.6699C12.8757 25.2012 12.1855 25.0482 11.5996 24.7422C11.0137 24.4297 10.5579 24.0065 10.2324 23.4727C9.91341 22.9323 9.75391 22.3171 9.75391 21.627C9.75391 20.9434 9.91341 20.3346 10.2324 19.8008C10.5579 19.2669 11.0137 18.847 11.5996 18.541C12.1855 18.235 12.8757 18.082 13.6699 18.082H18.7188V19.8887H13.5527C12.9342 19.8887 12.446 20.0514 12.0879 20.377C11.7363 20.696 11.5605 21.1126 11.5605 21.627C11.5605 22.1478 11.7331 22.571 12.0781 22.8965C12.4297 23.222 12.9212 23.3848 13.5527 23.3848H18.0059C18.8001 23.3848 19.4902 23.541 20.0762 23.8535C20.6621 24.166 21.1146 24.5892 21.4336 25.123C21.7591 25.6569 21.9219 26.2689 21.9219 26.959C21.9219 27.6426 21.7591 28.2513 21.4336 28.7852C21.1146 29.319 20.6621 29.7389 20.0762 30.0449C19.4902 30.3509 18.8001 30.5039 18.0059 30.5039H9.75391Z" fill="#2135FD"/>
</svg>
