<svg width="44" height="44" viewBox="0 0 44 44" fill="none" xmlns="http://www.w3.org/2000/svg">
<rect width="44" height="44" rx="22" fill="#E9EDFC"/>
<path d="M22 33.8467C20.4202 33.8467 18.9378 33.5472 17.5527 32.9482C16.1676 32.3568 14.951 31.5369 13.9028 30.4888C12.8547 29.4406 12.0311 28.224 11.4321 26.8389C10.8407 25.4538 10.5449 23.9714 10.5449 22.3916C10.5449 20.8118 10.8407 19.3294 11.4321 17.9443C12.0311 16.5592 12.8547 15.3426 13.9028 14.2944C14.951 13.2388 16.1676 12.4152 17.5527 11.8237C18.9378 11.2323 20.4202 10.9365 22 10.9365C23.5798 10.9365 25.0622 11.2323 26.4473 11.8237C27.8324 12.4152 29.049 13.2388 30.0972 14.2944C31.1453 15.3426 31.9652 16.5592 32.5566 17.9443C33.1556 19.3294 33.4551 20.8118 33.4551 22.3916C33.4551 23.9714 33.1556 25.4538 32.5566 26.8389C31.9652 28.224 31.1453 29.4406 30.0972 30.4888C29.049 31.5369 27.8324 32.3568 26.4473 32.9482C25.0622 33.5472 23.5798 33.8467 22 33.8467ZM22 31.9375C23.3177 31.9375 24.5531 31.6904 25.7061 31.1963C26.859 30.7021 27.8735 30.0171 28.7495 29.1411C29.6255 28.2651 30.3105 27.2507 30.8047 26.0977C31.2988 24.9447 31.5459 23.7093 31.5459 22.3916C31.5459 21.0739 31.2988 19.8385 30.8047 18.6855C30.3105 17.5251 29.6255 16.5106 28.7495 15.6421C27.8735 14.7661 26.859 14.0811 25.7061 13.5869C24.5531 13.0928 23.3177 12.8457 22 12.8457C20.6823 12.8457 19.4469 13.0928 18.2939 13.5869C17.141 14.0811 16.1265 14.7661 15.2505 15.6421C14.3745 16.5106 13.6895 17.5251 13.1953 18.6855C12.7012 19.8385 12.4541 21.0739 12.4541 22.3916C12.4541 23.7093 12.7012 24.9447 13.1953 26.0977C13.6895 27.2507 14.3745 28.2651 15.2505 29.1411C16.1265 30.0171 17.141 30.7021 18.2939 31.1963C19.4469 31.6904 20.6823 31.9375 22 31.9375ZM18.4512 27.5352C18.1742 27.5352 17.957 27.4491 17.7998 27.2769C17.6426 27.0972 17.564 26.8501 17.564 26.5356V18.0342C17.564 17.7272 17.6426 17.4839 17.7998 17.3042C17.957 17.1245 18.1742 17.0347 18.4512 17.0347C18.7357 17.0347 18.9565 17.1245 19.1138 17.3042C19.2785 17.4764 19.3608 17.7197 19.3608 18.0342V21.4258H24.6167V18.0342C24.6167 17.7272 24.6953 17.4839 24.8525 17.3042C25.0098 17.1245 25.2231 17.0347 25.4927 17.0347C25.7847 17.0347 26.0093 17.1245 26.1665 17.3042C26.3237 17.4764 26.4023 17.7197 26.4023 18.0342V26.5356C26.4023 26.8501 26.3237 27.0972 26.1665 27.2769C26.0093 27.4491 25.7847 27.5352 25.4927 27.5352C25.2231 27.5352 25.0098 27.4491 24.8525 27.2769C24.6953 27.0972 24.6167 26.8501 24.6167 26.5356V22.8296H19.3608V26.5356C19.3608 26.8501 19.2785 27.0972 19.1138 27.2769C18.9565 27.4491 18.7357 27.5352 18.4512 27.5352Z" fill="#2135FD"/>
</svg>
