<svg width="44" height="44" viewBox="0 0 44 44" fill="none" xmlns="http://www.w3.org/2000/svg">
<rect width="44" height="44" rx="22" fill="#E9EDFC"/>
<path d="M8.9165 32.645C8.42236 32.1434 8.19401 31.6193 8.23145 31.0728C8.27637 30.5262 8.58333 29.9909 9.15234 29.4668L22.4829 16.9448L23.606 18.0566L10.4102 30.4775C10.1781 30.6872 10.0433 30.8931 10.0059 31.0952C9.97591 31.3049 10.0957 31.5444 10.3652 31.814L11.7129 33.1504C11.9824 33.4199 12.2183 33.5397 12.4204 33.5098C12.63 33.4798 12.8359 33.3488 13.0381 33.1167L25.2456 19.6851L26.3574 20.8081L14.0601 34.3633C13.5285 34.9548 12.9857 35.2692 12.4316 35.3066C11.8851 35.3441 11.3647 35.112 10.8706 34.6104L8.9165 32.645ZM16.2949 11.7227C17.126 10.8916 18.0469 10.2664 19.0576 9.84717C20.0758 9.4279 21.1315 9.22949 22.2246 9.25195C23.3252 9.26693 24.4146 9.514 25.4927 9.99316C26.5783 10.4648 27.6003 11.1761 28.5586 12.127L31.0854 14.6426C31.4224 14.9795 31.6432 15.2902 31.748 15.5747C31.8529 15.8517 31.8678 16.1512 31.793 16.4731L31.5122 17.7646L32.2534 18.4946L32.916 18.4385C33.193 18.416 33.4476 18.4572 33.6797 18.562C33.9193 18.6593 34.1738 18.8465 34.4434 19.1235L35.3306 19.9995C35.6076 20.2765 35.7498 20.576 35.7573 20.8979C35.7648 21.2124 35.6338 21.5044 35.3643 21.7739L32.0176 25.1318C31.748 25.4014 31.4486 25.5324 31.1191 25.5249C30.7972 25.5099 30.4977 25.3639 30.2207 25.0869L29.3447 24.2334C29.0677 23.9564 28.8805 23.6981 28.7832 23.4585C28.6934 23.2189 28.6597 22.9569 28.6821 22.6724L28.7271 22.0322L27.9634 21.2573L26.7393 21.4819C26.4173 21.5418 26.1253 21.5493 25.8633 21.5044C25.6012 21.4595 25.3317 21.2948 25.0547 21.0103L22.4155 18.3486C22.1086 18.0342 21.9102 17.701 21.8203 17.3491C21.738 16.9897 21.7941 16.5705 21.9888 16.0913L22.6626 14.418C21.839 13.8789 20.9967 13.5944 20.1357 13.5645C19.2747 13.527 18.425 13.6056 17.5864 13.8003C17.2121 13.8901 16.8939 13.8826 16.6318 13.7778C16.3773 13.673 16.1826 13.5158 16.0479 13.3062C15.9131 13.0815 15.8607 12.8195 15.8906 12.52C15.9206 12.2205 16.0553 11.9548 16.2949 11.7227ZM18.0132 12.1494C17.9383 12.2093 17.9121 12.2692 17.9346 12.3291C17.9645 12.3815 18.0244 12.3965 18.1143 12.374C19.2822 12.0296 20.4277 12.0184 21.5508 12.3403C22.6738 12.6623 23.6846 13.2425 24.583 14.0811L23.5723 16.4844C23.4824 16.694 23.445 16.8625 23.46 16.9897C23.4824 17.1095 23.5685 17.2368 23.7183 17.3716L26.0205 19.6738C26.1628 19.8086 26.2863 19.891 26.3911 19.9209C26.5034 19.9434 26.6532 19.9359 26.8403 19.8984L28.5923 19.6064L30.3105 21.3135L30.2319 22.4365C30.2244 22.5863 30.2357 22.6986 30.2656 22.7734C30.2956 22.8483 30.3667 22.9419 30.479 23.0542L31.1416 23.7168L33.9492 20.9092L33.2866 20.2466C33.1743 20.1343 33.0807 20.0669 33.0059 20.0444C32.931 20.0145 32.8224 20.0033 32.6802 20.0107L31.5459 20.0781L29.8164 18.3711L30.187 16.6641C30.2319 16.4694 30.2357 16.3084 30.1982 16.1812C30.1683 16.0539 30.0859 15.9229 29.9512 15.7881L27.1548 13.0142C26.5184 12.3703 25.8146 11.8687 25.0435 11.5093C24.2798 11.1499 23.4899 10.9328 22.6738 10.8579C21.8577 10.7756 21.0492 10.8429 20.248 11.0601C19.4544 11.2772 18.7095 11.6403 18.0132 12.1494Z" fill="#2135FD"/>
</svg>
