<svg width="44" height="44" viewBox="0 0 44 44" fill="none" xmlns="http://www.w3.org/2000/svg">
<rect width="44" height="44" rx="22" fill="#E9EDFC"/>
<path d="M28.923 14.3076H15.0768C14.652 14.3076 14.3076 14.652 14.3076 15.0768V28.923C14.3076 29.3478 14.652 29.6922 15.0768 29.6922H28.923C29.3478 29.6922 29.6922 29.3478 29.6922 28.923V15.0768C29.6922 14.652 29.3478 14.3076 28.923 14.3076Z" fill="#A6B4F6" stroke="#2135FD" stroke-width="2" stroke-linecap="round" stroke-linejoin="round"/>
<path d="M24.3078 19.6924H19.6924V24.3078H24.3078V19.6924Z" fill="#E9EDFC" stroke="#2135FD" stroke-width="2" stroke-linecap="round" stroke-linejoin="round"/>
<path d="M29.6924 19.6924H32.0001" stroke="#2135FD" stroke-width="2" stroke-linecap="round" stroke-linejoin="round"/>
<path d="M29.6924 24.3076H32.0001" stroke="#2135FD" stroke-width="2" stroke-linecap="round" stroke-linejoin="round"/>
<path d="M12 19.6924H14.3077" stroke="#2135FD" stroke-width="2" stroke-linecap="round" stroke-linejoin="round"/>
<path d="M12 24.3076H14.3077" stroke="#2135FD" stroke-width="2" stroke-linecap="round" stroke-linejoin="round"/>
<path d="M24.3076 29.6924V32.0001" stroke="#2135FD" stroke-width="2" stroke-linecap="round" stroke-linejoin="round"/>
<path d="M19.6924 29.6924V32.0001" stroke="#2135FD" stroke-width="2" stroke-linecap="round" stroke-linejoin="round"/>
<path d="M24.3076 12V14.3077" stroke="#2135FD" stroke-width="2" stroke-linecap="round" stroke-linejoin="round"/>
<path d="M19.6924 12V14.3077" stroke="#2135FD" stroke-width="2" stroke-linecap="round" stroke-linejoin="round"/>
</svg>
