<svg width="44" height="44" viewBox="0 0 44 44" fill="none" xmlns="http://www.w3.org/2000/svg">
<rect width="44" height="44" rx="22" fill="#E9EDFC"/>
<path d="M16.9316 33.541C16.0853 33.541 15.3919 33.2708 14.8516 32.7305C14.3112 32.1901 14.041 31.4902 14.041 30.6309V16.8516C14.041 15.9987 14.3112 15.3021 14.8516 14.7617C15.3919 14.2214 16.0853 13.9512 16.9316 13.9512H27.0586C27.9115 13.9512 28.6081 14.2214 29.1484 14.7617C29.6888 15.3021 29.959 15.9987 29.959 16.8516V30.6309C29.959 31.4902 29.6888 32.1901 29.1484 32.7305C28.6081 33.2708 27.9115 33.541 27.0586 33.541H16.9316ZM16.9902 31.7637H27.0098C27.3548 31.7637 27.6348 31.6497 27.8496 31.4219C28.071 31.194 28.1816 30.901 28.1816 30.543V16.9395C28.1816 16.5749 28.071 16.2819 27.8496 16.0605C27.6348 15.8327 27.3548 15.7188 27.0098 15.7188H16.9902C16.6387 15.7188 16.3555 15.8327 16.1406 16.0605C15.9258 16.2819 15.8184 16.5749 15.8184 16.9395V30.543C15.8184 30.901 15.9258 31.194 16.1406 31.4219C16.3555 31.6497 16.6387 31.7637 16.9902 31.7637ZM14.8906 29.4102V27.6426H29.1289V29.4102H14.8906ZM17.5176 15.0352V10.8652C17.5176 10.1426 17.7357 9.57617 18.1719 9.16602C18.6146 8.74935 19.2201 8.54102 19.9883 8.54102H24.0898C24.832 8.54102 25.4147 8.74935 25.8379 9.16602C26.2611 9.57617 26.4727 10.1426 26.4727 10.8652V15.0156H24.7051V10.9434C24.7051 10.709 24.6367 10.5234 24.5 10.3867C24.3698 10.2435 24.1875 10.1719 23.9531 10.1719H20.125C19.8711 10.1719 19.6693 10.2402 19.5195 10.377C19.3698 10.5137 19.2949 10.7025 19.2949 10.9434V15.0352H17.5176ZM17.5078 35.0156C17.2409 35.0156 17.026 34.9342 16.8633 34.7715C16.7005 34.6087 16.6191 34.3939 16.6191 34.127V32.4961H19.0215V34.127C19.0215 34.3939 18.9401 34.6087 18.7773 34.7715C18.6146 34.9342 18.3997 35.0156 18.1328 35.0156H17.5078ZM25.8672 35.0156C25.5938 35.0156 25.3757 34.9342 25.2129 34.7715C25.0566 34.6087 24.9785 34.3939 24.9785 34.127V32.4961H27.3809V34.127C27.3809 34.3939 27.2995 34.6087 27.1367 34.7715C26.974 34.9342 26.7591 35.0156 26.4922 35.0156H25.8672Z" fill="#2135FD"/>
</svg>
