<svg width="44" height="44" viewBox="0 0 44 44" fill="none" xmlns="http://www.w3.org/2000/svg">
<rect width="44" height="44" rx="22" fill="#E9EDFC"/>
<path d="M22 36.6094C21.3636 36.6094 20.8245 36.5308 20.3828 36.3735C19.9411 36.2238 19.5592 36.0329 19.2373 35.8008C18.9154 35.5762 18.6234 35.3478 18.3613 35.1157C18.0993 34.8911 17.8335 34.7002 17.564 34.543C17.2944 34.3932 16.9837 34.3184 16.6318 34.3184C16.2799 34.3184 15.9692 34.3932 15.6997 34.543C15.4377 34.7002 15.1719 34.8911 14.9023 35.1157C14.6403 35.3478 14.3408 35.5762 14.0039 35.8008C13.6745 36.0329 13.2702 36.2238 12.791 36.3735C12.3118 36.5308 11.7091 36.6094 10.9829 36.6094H10.9155C10.661 36.6094 10.4438 36.5195 10.2642 36.3398C10.0845 36.1676 9.99463 35.9505 9.99463 35.6885C9.99463 35.4339 10.0845 35.2168 10.2642 35.0371C10.4438 34.8649 10.661 34.7788 10.9155 34.7788H10.9829C11.5519 34.7788 12.0273 34.674 12.4092 34.4644C12.7985 34.2622 13.214 34.0039 13.6558 33.6895C14.0226 33.4199 14.4494 33.1504 14.936 32.8809C15.4227 32.6113 15.988 32.4766 16.6318 32.4766C17.2982 32.4766 17.8747 32.6151 18.3613 32.8921C18.8555 33.1766 19.286 33.4574 19.6528 33.7344C20.0422 34.0264 20.409 34.2734 20.7534 34.4756C21.0978 34.6777 21.5133 34.7788 22 34.7788C22.4867 34.7788 22.9022 34.6777 23.2466 34.4756C23.591 34.2734 23.9578 34.0264 24.3472 33.7344C24.714 33.4574 25.1408 33.1766 25.6274 32.8921C26.1216 32.6151 26.7018 32.4766 27.3682 32.4766C28.0195 32.4766 28.5848 32.6113 29.064 32.8809C29.5506 33.1504 29.9774 33.4199 30.3442 33.6895C30.786 34.0039 31.2015 34.2622 31.5908 34.4644C31.9801 34.674 32.4556 34.7788 33.0171 34.7788H33.0845C33.339 34.7788 33.5562 34.8649 33.7358 35.0371C33.9155 35.2168 34.0054 35.4339 34.0054 35.6885C34.0054 35.9505 33.9155 36.1676 33.7358 36.3398C33.5562 36.5195 33.339 36.6094 33.0845 36.6094H33.0171C32.2983 36.6094 31.6956 36.5308 31.209 36.3735C30.7298 36.2238 30.3218 36.0329 29.9849 35.8008C29.6554 35.5762 29.356 35.3478 29.0864 35.1157C28.8244 34.8911 28.5623 34.7002 28.3003 34.543C28.0382 34.3932 27.7275 34.3184 27.3682 34.3184C27.0163 34.3184 26.7056 34.3932 26.436 34.543C26.1665 34.7002 25.9007 34.8911 25.6387 35.1157C25.3766 35.3478 25.0846 35.5762 24.7627 35.8008C24.4408 36.0329 24.0589 36.2238 23.6172 36.3735C23.1755 36.5308 22.6364 36.6094 22 36.6094ZM10.4214 26.5469C9.92725 25.6709 9.78874 24.9072 10.0059 24.2559C10.223 23.597 10.762 23.0767 11.623 22.6948L19.8887 18.9438C20.1208 18.8315 20.409 18.708 20.7534 18.5732C21.1053 18.431 21.5208 18.3599 22 18.3599C22.4792 18.3599 22.891 18.431 23.2354 18.5732C23.5872 18.708 23.8792 18.8315 24.1113 18.9438L32.377 22.6948C33.238 23.0767 33.777 23.597 33.9941 24.2559C34.2188 24.9072 34.0802 25.6709 33.5786 26.5469L29.5469 33.7119L27.896 32.8472L31.9053 25.7832C32.1299 25.3864 32.2048 25.0794 32.1299 24.8623C32.0625 24.6452 31.8866 24.4767 31.6021 24.3569L23.3701 20.6172C23.0931 20.4974 22.8573 20.4001 22.6626 20.3252C22.4679 20.2503 22.2471 20.2129 22 20.2129C21.7529 20.2129 21.5283 20.2503 21.3262 20.3252C21.1315 20.4001 20.9032 20.4974 20.6411 20.6172L12.3979 24.3569C12.1209 24.4767 11.945 24.6452 11.8701 24.8623C11.7952 25.0794 11.8701 25.3864 12.0947 25.7832L16.104 32.8472L14.5205 33.8018L10.4214 26.5469ZM12.7012 22.5938L14.0039 13.3848C14.1162 12.5986 14.3857 11.9959 14.8125 11.5767C15.2467 11.1574 15.8195 10.9478 16.5308 10.9478H27.4917C28.2104 10.9478 28.7869 11.1424 29.2212 11.5317C29.6554 11.9136 29.9212 12.4676 30.0186 13.1938L31.3101 22.5938L29.3447 21.8975L28.1655 13.3398C28.1356 13.1676 28.0645 13.0366 27.9521 12.9468C27.8398 12.8494 27.6789 12.8008 27.4692 12.8008H16.5532C16.3586 12.8008 16.2013 12.8569 16.0815 12.9692C15.9692 13.0741 15.8981 13.2313 15.8682 13.4409L14.6665 21.8525L12.7012 22.5938ZM17.4741 16.8325C17.3169 16.8325 17.1896 16.7839 17.0923 16.6865C17.0024 16.5892 16.9575 16.4619 16.9575 16.3047V14.5977C16.9575 14.4404 17.0024 14.3132 17.0923 14.2158C17.1896 14.1185 17.3169 14.0698 17.4741 14.0698H20.7983C20.9855 14.0698 21.1353 14.1185 21.2476 14.2158C21.3674 14.3132 21.4272 14.4404 21.4272 14.5977V16.3047C21.4272 16.4619 21.3674 16.5892 21.2476 16.6865C21.1353 16.7839 20.9855 16.8325 20.7983 16.8325H17.4741ZM23.0894 16.8325C22.9396 16.8325 22.8161 16.7839 22.7188 16.6865C22.6289 16.5892 22.584 16.4619 22.584 16.3047V14.5977C22.584 14.4404 22.6289 14.3132 22.7188 14.2158C22.8161 14.1185 22.9396 14.0698 23.0894 14.0698H26.4248C26.6195 14.0698 26.7729 14.1185 26.8853 14.2158C26.9976 14.3132 27.0537 14.4404 27.0537 14.5977V16.3047C27.0537 16.4619 26.9976 16.5892 26.8853 16.6865C26.7729 16.7839 26.6195 16.8325 26.4248 16.8325H23.0894ZM16.9912 12.2056V10.1504C16.9912 9.55892 17.1634 9.09098 17.5078 8.74658C17.8597 8.39469 18.3314 8.21875 18.9229 8.21875H25.0884C25.6799 8.21875 26.1478 8.39469 26.4922 8.74658C26.8366 9.09098 27.0088 9.55892 27.0088 10.1504V12.2056H25.167V10.3638C25.167 10.1167 25.0435 9.99316 24.7964 9.99316H19.2148C18.9678 9.99316 18.8442 10.1167 18.8442 10.3638V12.2056H16.9912Z" fill="#2135FD"/>
</svg>
