<svg width="44" height="44" viewBox="0 0 44 44" fill="none" xmlns="http://www.w3.org/2000/svg">
<rect width="44" height="44" rx="22" fill="#E9EDFC"/>
<path d="M22 35.21C21.2122 35.21 20.4997 34.902 19.8623 34.2861C19.2249 33.6774 18.6771 32.8037 18.2188 31.665C17.7676 30.5264 17.4202 29.1621 17.1768 27.5723C16.9333 25.9824 16.8115 24.2064 16.8115 22.2441C16.8115 20.2891 16.9333 18.5202 17.1768 16.9375C17.4202 15.3477 17.7676 13.987 18.2188 12.8555C18.6771 11.7168 19.2249 10.8431 19.8623 10.2344C20.4997 9.61849 21.2122 9.31055 22 9.31055C22.7878 9.31055 23.5003 9.61849 24.1377 10.2344C24.7751 10.8431 25.3193 11.7168 25.7705 12.8555C26.2288 13.987 26.5798 15.3477 26.8232 16.9375C27.0667 18.5202 27.1885 20.2891 27.1885 22.2441C27.1885 24.2064 27.0667 25.9824 26.8232 27.5723C26.5798 29.1621 26.2288 30.5264 25.7705 31.665C25.3193 32.8037 24.7751 33.6774 24.1377 34.2861C23.5003 34.902 22.7878 35.21 22 35.21ZM22 33.6309C22.7018 33.6309 23.3141 33.1582 23.8369 32.2129C24.3597 31.2747 24.7643 29.9535 25.0508 28.249C25.3444 26.5446 25.4912 24.543 25.4912 22.2441C25.4912 19.9525 25.3444 17.958 25.0508 16.2607C24.7643 14.5563 24.3597 13.235 23.8369 12.2969C23.3141 11.3587 22.7018 10.8896 22 10.8896C21.2982 10.8896 20.6859 11.3587 20.1631 12.2969C19.6475 13.235 19.2428 14.5563 18.9492 16.2607C18.6628 17.958 18.5195 19.9525 18.5195 22.2441C18.5195 24.543 18.6628 26.5446 18.9492 28.249C19.2428 29.9535 19.6475 31.2747 20.1631 32.2129C20.6859 33.1582 21.2982 33.6309 22 33.6309ZM10.7744 28.8398C10.3877 28.1595 10.2982 27.3932 10.5059 26.541C10.7207 25.6888 11.2077 24.7829 11.9668 23.8232C12.7259 22.8564 13.7321 21.8717 14.9854 20.8691C16.2458 19.8594 17.7246 18.8604 19.4219 17.8721C21.1191 16.891 22.7161 16.1104 24.2129 15.5303C25.7096 14.9502 27.0632 14.5742 28.2734 14.4023C29.4837 14.2233 30.5114 14.2591 31.3564 14.5098C32.2087 14.7533 32.8317 15.2152 33.2256 15.8955C33.6195 16.583 33.709 17.3564 33.4941 18.2158C33.2865 19.068 32.8031 19.974 32.0439 20.9336C31.292 21.8932 30.2858 22.8779 29.0254 23.8877C27.7721 24.8903 26.2969 25.8786 24.5996 26.8525C22.9023 27.8337 21.3018 28.6178 19.7979 29.2051C18.2939 29.7852 16.9368 30.1611 15.7266 30.333C14.5163 30.512 13.485 30.4762 12.6328 30.2256C11.7878 29.9821 11.1683 29.5202 10.7744 28.8398ZM12.1602 28.0449C12.5111 28.6536 13.2201 28.9508 14.2871 28.9365C15.3613 28.915 16.7077 28.6035 18.3262 28.002C19.9518 27.3932 21.7637 26.5124 23.7617 25.3594C25.7454 24.2207 27.3997 23.1035 28.7246 22.0078C30.0566 20.9049 30.9948 19.8952 31.5391 18.9785C32.0905 18.0547 32.1908 17.2956 31.8398 16.7012C31.4889 16.0924 30.7764 15.7952 29.7021 15.8096C28.6351 15.8239 27.2923 16.1318 25.6738 16.7334C24.0553 17.335 22.2578 18.2087 20.2812 19.3545C18.2832 20.5075 16.6182 21.6354 15.2861 22.7383C13.9541 23.8411 13.0124 24.8509 12.4609 25.7676C11.9095 26.6842 11.8092 27.4434 12.1602 28.0449ZM33.2256 28.8398C32.8317 29.5202 32.2122 29.9821 31.3672 30.2256C30.5221 30.4762 29.4909 30.512 28.2734 30.333C27.0632 30.1611 25.7061 29.7852 24.2021 29.2051C22.7054 28.6178 21.1048 27.8337 19.4004 26.8525C17.7031 25.8786 16.2279 24.8903 14.9746 23.8877C13.7214 22.8779 12.7152 21.8932 11.9561 20.9336C11.1969 19.974 10.71 19.068 10.4951 18.2158C10.2874 17.3564 10.3805 16.583 10.7744 15.8955C11.1755 15.2152 11.7985 14.7533 12.6436 14.5098C13.4886 14.2591 14.5163 14.2233 15.7266 14.4023C16.9368 14.5742 18.2904 14.9502 19.7871 15.5303C21.2839 16.1104 22.8809 16.891 24.5781 17.8721C26.2826 18.8604 27.7614 19.8594 29.0146 20.8691C30.2679 21.8717 31.2741 22.8564 32.0332 23.8232C32.7923 24.7829 33.2757 25.6888 33.4834 26.541C33.6982 27.3932 33.6123 28.1595 33.2256 28.8398ZM31.8398 28.0449C32.1908 27.4434 32.0905 26.6842 31.5391 25.7676C30.9948 24.8509 30.0531 23.8411 28.7139 22.7383C27.3818 21.6354 25.7204 20.5075 23.7295 19.3545C21.7458 18.2087 19.9447 17.335 18.3262 16.7334C16.7148 16.1318 15.3721 15.8239 14.2979 15.8096C13.2236 15.7952 12.5111 16.0924 12.1602 16.7012C11.8092 17.2956 11.9059 18.0547 12.4502 18.9785C13.0016 19.8952 13.9434 20.9049 15.2754 22.0078C16.6074 23.1035 18.2653 24.2207 20.249 25.3594C22.2399 26.5124 24.0446 27.3932 25.6631 28.002C27.2887 28.6035 28.6351 28.915 29.7021 28.9365C30.7764 28.9508 31.4889 28.6536 31.8398 28.0449ZM22.0107 24.543C21.3805 24.543 20.8398 24.321 20.3887 23.877C19.9447 23.4329 19.7227 22.8923 19.7227 22.2549C19.7227 21.6318 19.9447 21.0983 20.3887 20.6543C20.8398 20.2031 21.3805 19.9775 22.0107 19.9775C22.641 19.9775 23.1781 20.2031 23.6221 20.6543C24.0661 21.0983 24.2881 21.6318 24.2881 22.2549C24.2881 22.8923 24.0661 23.4329 23.6221 23.877C23.1781 24.321 22.641 24.543 22.0107 24.543Z" fill="#2135FD"/>
</svg>
