<svg width="44" height="44" viewBox="0 0 44 44" fill="none" xmlns="http://www.w3.org/2000/svg">
<rect width="44" height="44" rx="22" fill="#E9EDFC"/>
<path d="M18.4399 24.5479C18.4399 24.458 18.4849 24.3532 18.5747 24.2334L23.0781 18.5845C23.2503 18.3674 23.4338 18.3112 23.6284 18.416C23.8306 18.5208 23.883 18.708 23.7856 18.9775L22.3032 22.9531H25.0771C25.182 22.9531 25.2718 22.9868 25.3467 23.0542C25.429 23.1216 25.4702 23.2077 25.4702 23.3125C25.4702 23.4248 25.4215 23.5334 25.3242 23.6382L20.832 29.2759C20.6598 29.493 20.4727 29.5492 20.2705 29.4443C20.0684 29.3395 20.016 29.1561 20.1133 28.894L21.6069 24.9072H18.8218C18.5672 24.9072 18.4399 24.7874 18.4399 24.5479ZM12.2856 32.0273C11.1102 32.0273 10.2267 31.7354 9.63525 31.1514C9.05127 30.5749 8.75928 29.7064 8.75928 28.5459V19.1235C8.75928 17.9705 9.05127 17.1058 9.63525 16.5293C10.2267 15.9453 11.1102 15.6533 12.2856 15.6533H13.5322V14.1484C13.5322 13.7217 13.6483 13.3885 13.8804 13.1489C14.12 12.9019 14.4569 12.7783 14.8911 12.7783H17.1372C17.564 12.7783 17.8971 12.9019 18.1367 13.1489C18.3763 13.3885 18.4961 13.7217 18.4961 14.1484V15.6533H25.5151V14.1484C25.5151 13.7217 25.6312 13.3885 25.8633 13.1489C26.1029 12.9019 26.436 12.7783 26.8628 12.7783H29.1089C29.5431 12.7783 29.8763 12.9019 30.1084 13.1489C30.348 13.3885 30.4678 13.7217 30.4678 14.1484V15.6533H31.7144C32.8973 15.6533 33.7808 15.9453 34.3647 16.5293C34.9487 17.1058 35.2407 17.9705 35.2407 19.1235V28.5459C35.2407 29.7064 34.9487 30.5749 34.3647 31.1514C33.7808 31.7354 32.8973 32.0273 31.7144 32.0273H12.2856ZM10.5674 28.4561C10.5674 29.0326 10.7171 29.4705 11.0166 29.77C11.3161 30.0695 11.7466 30.2192 12.3081 30.2192H31.6919C32.2459 30.2192 32.6727 30.0695 32.9722 29.77C33.2791 29.4705 33.4326 29.0326 33.4326 28.4561V19.2246C33.4326 18.6406 33.2791 18.2026 32.9722 17.9106C32.6727 17.6112 32.2459 17.4614 31.6919 17.4614H12.3081C11.7466 17.4614 11.3161 17.6112 11.0166 17.9106C10.7171 18.2026 10.5674 18.6406 10.5674 19.2246V28.4561Z" fill="#2135FD"/>
</svg>
