<svg width="44" height="44" viewBox="0 0 44 44" fill="none" xmlns="http://www.w3.org/2000/svg">
<rect width="44" height="44" rx="22" fill="#E9EDFC"/>
<path d="M22.2666 32.125C22.0068 32.125 21.7847 32.0361 21.6001 31.8584C21.4224 31.6807 21.3335 31.4619 21.3335 31.2021V25.3369L16.0117 30.2588C15.8066 30.4502 15.5674 30.5527 15.2939 30.5664C15.0273 30.5801 14.7778 30.4673 14.5454 30.228L12.8535 31.5508C12.7578 31.6191 12.6553 31.6499 12.5459 31.6431C12.4434 31.6362 12.3477 31.5918 12.2588 31.5098L11.9614 31.2021C11.8657 31.1133 11.8179 31.0142 11.8179 30.9048C11.8179 30.7954 11.8486 30.6997 11.9102 30.6177L13.2227 28.9258C12.9834 28.6797 12.8706 28.4233 12.8843 28.1567C12.8979 27.8901 13.0005 27.6509 13.1919 27.439L22.728 17.1748C22.646 16.5801 22.7178 15.9888 22.9434 15.4009C23.1758 14.813 23.562 14.249 24.1021 13.709L29.7417 19.3589C29.2017 19.8989 28.6309 20.2886 28.0293 20.5278C27.4346 20.7671 26.8467 20.8457 26.2656 20.7637L23.1997 23.5938V31.2021C23.1997 31.4619 23.1074 31.6807 22.9229 31.8584C22.7451 32.0361 22.5264 32.125 22.2666 32.125ZM14.248 28.2798L15.1914 29.2231L24.7275 20.1895C24.5908 20.1074 24.4541 20.0117 24.3174 19.9023C24.1807 19.7861 24.0508 19.6631 23.9277 19.5332C23.7979 19.3965 23.6782 19.2598 23.5688 19.123C23.4663 18.9795 23.374 18.8325 23.292 18.6821L14.248 28.2798ZM25.1274 12.6733C25.729 12.0718 26.3682 11.665 27.0449 11.4531C27.7217 11.2412 28.3916 11.2275 29.0547 11.4121C29.7246 11.5898 30.3467 11.9624 30.9209 12.5298C31.4951 13.104 31.8711 13.7261 32.0488 14.396C32.2334 15.0659 32.2163 15.7393 31.9976 16.416C31.7856 17.0928 31.3789 17.7285 30.7773 18.3232L25.1274 12.6733Z" fill="#2135FD"/>
</svg>
