<svg width="44" height="44" viewBox="0 0 44 44" fill="none" xmlns="http://www.w3.org/2000/svg">
<rect width="44" height="44" rx="22" fill="#E9EDFC"/>
<path d="M13.9814 19.0225C14.0788 18.6257 14.1911 18.2064 14.3184 17.7646C14.4531 17.3229 14.5916 16.9149 14.7339 16.5405C14.8761 16.1587 15.0072 15.8667 15.127 15.6646C15.2692 15.41 15.4302 15.2228 15.6099 15.103C15.797 14.9832 16.0366 14.9009 16.3286 14.856C16.7329 14.7961 17.403 14.7511 18.3389 14.7212C19.2747 14.6838 20.4951 14.665 22 14.665C23.5049 14.665 24.7253 14.6838 25.6611 14.7212C26.597 14.7511 27.2671 14.7961 27.6714 14.856C27.9634 14.9009 28.1992 14.9832 28.3789 15.103C28.5661 15.2228 28.7308 15.41 28.873 15.6646C28.9928 15.8667 29.1239 16.1587 29.2661 16.5405C29.4084 16.9149 29.5469 17.3229 29.6816 17.7646C29.8164 18.2064 29.9287 18.6257 30.0186 19.0225C30.0635 19.2246 30.0448 19.3669 29.9624 19.4492C29.88 19.5316 29.734 19.5653 29.5244 19.5503C28.9255 19.5054 28.2703 19.4679 27.5591 19.438C26.8553 19.4006 26.0505 19.3743 25.1445 19.3594C24.2461 19.3369 23.1979 19.3257 22 19.3257C20.8021 19.3257 19.7502 19.3369 18.8442 19.3594C17.9458 19.3743 17.1447 19.4006 16.4409 19.438C15.7371 19.4679 15.0858 19.5054 14.4868 19.5503C14.2697 19.5653 14.12 19.5316 14.0376 19.4492C13.9552 19.3669 13.9365 19.2246 13.9814 19.0225ZM13.9028 26.6704C13.3862 26.6704 12.9557 26.4982 12.6113 26.1538C12.2669 25.8019 12.0947 25.3714 12.0947 24.8623C12.0947 24.3457 12.2669 23.9152 12.6113 23.5708C12.9557 23.2264 13.3862 23.0542 13.9028 23.0542C14.4194 23.0542 14.8499 23.2264 15.1943 23.5708C15.5387 23.9152 15.7109 24.3457 15.7109 24.8623C15.7109 25.3714 15.5387 25.8019 15.1943 26.1538C14.8499 26.4982 14.4194 26.6704 13.9028 26.6704ZM19.0352 26.2212C18.6458 26.2212 18.3314 26.1014 18.0918 25.8618C17.8522 25.6222 17.7324 25.3078 17.7324 24.9185C17.7324 24.5366 17.8522 24.2259 18.0918 23.9863C18.3314 23.7467 18.6458 23.627 19.0352 23.627H24.9761C25.3579 23.627 25.6686 23.7467 25.9082 23.9863C26.1478 24.2259 26.2676 24.5366 26.2676 24.9185C26.2676 25.3078 26.1478 25.6222 25.9082 25.8618C25.6686 26.1014 25.3579 26.2212 24.9761 26.2212H19.0352ZM30.0972 26.6704C29.5881 26.6704 29.1613 26.4982 28.8169 26.1538C28.4725 25.8019 28.3003 25.3714 28.3003 24.8623C28.3003 24.3457 28.4725 23.9152 28.8169 23.5708C29.1613 23.2264 29.5881 23.0542 30.0972 23.0542C30.6138 23.0542 31.0443 23.2264 31.3887 23.5708C31.7331 23.9152 31.9053 24.3457 31.9053 24.8623C31.9053 25.3714 31.7331 25.8019 31.3887 26.1538C31.0443 26.4982 30.6138 26.6704 30.0972 26.6704ZM22 29.7026C21.0566 29.7026 20.0609 29.6914 19.0127 29.6689C17.9645 29.6465 16.9351 29.6165 15.9243 29.5791C14.9136 29.5342 13.9852 29.4855 13.1392 29.4331C12.3006 29.3807 11.6156 29.3245 11.084 29.2646C10.3278 29.1748 9.74382 28.924 9.33203 28.5122C8.92025 28.1004 8.71436 27.5352 8.71436 26.8164V24.8398C8.71436 24.2035 8.75928 23.6494 8.84912 23.1777C8.94645 22.6986 9.09619 22.2531 9.29834 21.8413C9.50798 21.422 9.78874 20.9878 10.1406 20.5386L11.084 19.3145C11.2188 18.6406 11.3835 17.9743 11.5781 17.3154C11.7728 16.6566 11.9637 16.0651 12.1509 15.541C12.3381 15.0169 12.499 14.6164 12.6338 14.3394C12.9333 13.703 13.3638 13.1976 13.9253 12.8232C14.4868 12.4414 15.1419 12.2056 15.8906 12.1157C16.1377 12.0858 16.557 12.0596 17.1484 12.0371C17.7474 12.0146 18.4624 11.9959 19.2935 11.981C20.132 11.966 21.0342 11.9585 22 11.9585C22.9658 11.9585 23.8643 11.966 24.6953 11.981C25.5339 11.9884 26.2489 12.0034 26.8403 12.0259C27.4393 12.0483 27.866 12.0783 28.1206 12.1157C28.8618 12.2131 29.5132 12.4489 30.0747 12.8232C30.6437 13.1976 31.078 13.703 31.3774 14.3394C31.5047 14.6164 31.6619 15.0169 31.8491 15.541C32.0438 16.0651 32.2347 16.6566 32.4219 17.3154C32.6165 17.9743 32.7812 18.6406 32.916 19.3145L33.8706 20.5386C34.215 20.9878 34.492 21.422 34.7017 21.8413C34.9113 22.2531 35.061 22.6986 35.1509 23.1777C35.2407 23.6494 35.2856 24.2035 35.2856 24.8398V26.8164C35.2856 27.5352 35.0798 28.1004 34.668 28.5122C34.2637 28.924 33.6797 29.1748 32.916 29.2646C32.3844 29.3245 31.6956 29.3807 30.8496 29.4331C30.0111 29.4855 29.0864 29.5342 28.0757 29.5791C27.0649 29.6165 26.0355 29.6465 24.9873 29.6689C23.9391 29.6914 22.9434 29.7026 22 29.7026ZM22 28.2314C22.9583 28.2314 23.9541 28.2202 24.9873 28.1978C26.028 28.1753 27.0387 28.1453 28.0195 28.1079C29.0003 28.0705 29.8838 28.0293 30.6699 27.9844C31.4561 27.9395 32.0737 27.887 32.5229 27.8271C33.0021 27.7747 33.3353 27.625 33.5225 27.3779C33.7171 27.1309 33.8145 26.7939 33.8145 26.3672V24.8398C33.8145 24.3232 33.7808 23.8853 33.7134 23.5259C33.6535 23.159 33.5412 22.8146 33.3765 22.4927C33.2192 22.1707 32.9946 21.8188 32.7026 21.437L31.5459 19.9321C31.471 19.5278 31.3737 19.0936 31.2539 18.6294C31.1341 18.1652 31.0031 17.7048 30.8608 17.248C30.7186 16.7913 30.5763 16.3683 30.4341 15.979C30.2918 15.5897 30.1608 15.264 30.041 15.002C29.8538 14.6201 29.5843 14.3132 29.2324 14.0811C28.888 13.8415 28.45 13.688 27.9185 13.6206C27.7013 13.5907 27.312 13.5607 26.7505 13.5308C26.1965 13.5008 25.5114 13.4784 24.6953 13.4634C23.8867 13.4409 22.9883 13.4297 22 13.4297C21.0192 13.4297 20.1245 13.4409 19.3159 13.4634C18.5073 13.4784 17.8223 13.5008 17.2607 13.5308C16.6992 13.5607 16.2987 13.5907 16.0591 13.6206C15.55 13.6805 15.1195 13.8302 14.7676 14.0698C14.4157 14.3019 14.1499 14.6126 13.9702 15.002C13.8504 15.264 13.7157 15.5897 13.5659 15.979C13.4237 16.3683 13.2814 16.7913 13.1392 17.248C12.9969 17.7048 12.8659 18.1652 12.7461 18.6294C12.6263 19.0936 12.529 19.5278 12.4541 19.9321L11.3086 21.437C11.0166 21.8188 10.7882 22.1707 10.6235 22.4927C10.4663 22.8146 10.354 23.159 10.2866 23.5259C10.2192 23.8853 10.1855 24.3232 10.1855 24.8398V26.3672C10.1855 26.7939 10.2829 27.1309 10.4775 27.3779C10.6722 27.6175 11.0054 27.7673 11.4771 27.8271C11.9338 27.887 12.5552 27.9432 13.3413 27.9956C14.1274 28.0405 15.0072 28.0817 15.9805 28.1191C16.9613 28.1491 17.972 28.1753 19.0127 28.1978C20.0534 28.2202 21.0492 28.2314 22 28.2314ZM10.7808 32.791C10.354 32.791 9.99837 32.6488 9.71387 32.3643C9.42936 32.0798 9.28711 31.7279 9.28711 31.3086V28.0181L13.5884 28.6357V31.3086C13.5884 31.7279 13.4461 32.0798 13.1616 32.3643C12.8771 32.6488 12.5215 32.791 12.0947 32.791H10.7808ZM31.9053 32.791C31.486 32.791 31.1341 32.6488 30.8496 32.3643C30.5651 32.0798 30.4229 31.7279 30.4229 31.3086V28.6357L34.7129 28.0181V31.3086C34.7129 31.7279 34.5706 32.0798 34.2861 32.3643C34.0016 32.6488 33.6497 32.791 33.2305 32.791H31.9053Z" fill="#2135FD"/>
</svg>
