<svg width="44" height="44" viewBox="0 0 44 44" fill="none" xmlns="http://www.w3.org/2000/svg">
<rect width="44" height="44" rx="22" fill="#E9EDFC"/>
<path d="M17.4136 14.6675L26.5824 18.335" stroke="#2135FD" stroke-width="2" stroke-linecap="round" stroke-linejoin="round"/>
<path d="M26.5824 14.6675L17.4136 18.335" stroke="#2135FD" stroke-width="2" stroke-linecap="round" stroke-linejoin="round"/>
<path d="M11.9126 16.4738C11.9046 24.6592 14.6037 31.1714 16.9555 32.8378C17.0884 32.9295 17.2432 32.9844 17.4042 32.9971C17.5651 33.0097 17.7266 32.9796 17.8722 32.9098C18.0178 32.84 18.1424 32.733 18.2334 32.5996C18.3244 32.4663 18.3785 32.3112 18.3904 32.1502C18.56 29.8316 19.2477 25.6701 21.9983 25.6701C24.7489 25.6701 25.4366 29.8316 25.6097 32.149C25.6215 32.31 25.6756 32.4651 25.7666 32.5985C25.8576 32.7319 25.9822 32.8389 26.1278 32.9087C26.2734 32.9785 26.4349 33.0086 26.5959 32.9959C26.7569 32.9833 26.9116 32.9283 27.0446 32.8367C29.3929 31.1691 32.0874 24.6581 32.0874 16.4726C32.0817 15.0174 31.4988 13.6239 30.4668 12.5979C29.4348 11.5719 28.0379 10.9973 26.5827 11H17.4139C15.9591 10.9982 14.5629 11.5734 13.5316 12.5996C12.5003 13.6257 11.9181 15.019 11.9126 16.4738Z" stroke="#2135FD" stroke-width="2" stroke-linecap="round" stroke-linejoin="round"/>
</svg>
