<svg width="44" height="44" viewBox="0 0 44 44" fill="none" xmlns="http://www.w3.org/2000/svg">
<rect width="44" height="44" rx="22" fill="#E9EDFC"/>
<path d="M17.3027 29.7617C15.6947 30.1914 14.2298 30.2402 12.9082 29.9082C11.5931 29.5762 10.4701 28.8958 9.53906 27.8672C8.60807 26.832 7.92122 25.4779 7.47852 23.8047L5.66211 16.9688C5.41471 16.0312 5.46029 15.2663 5.79883 14.6738C6.14388 14.0814 6.78841 13.6615 7.73242 13.4141L17.4102 10.8457C18.3477 10.5918 19.1159 10.6341 19.7148 10.9727C20.3138 11.3047 20.737 11.9329 20.9844 12.8574L22.8203 19.6934C23.2695 21.373 23.3477 22.8932 23.0547 24.2539C22.7682 25.6081 22.14 26.7572 21.1699 27.7012C20.1999 28.6387 18.9108 29.3255 17.3027 29.7617ZM16.8828 28.209C18.1654 27.8639 19.1908 27.3138 19.959 26.5586C20.7337 25.8034 21.235 24.8822 21.4629 23.7949C21.6908 22.7012 21.6224 21.4772 21.2578 20.123L19.4512 13.3555C19.3405 12.9193 19.1452 12.6198 18.8652 12.457C18.5853 12.2878 18.2305 12.2617 17.8008 12.3789L8.17188 14.957C7.74219 15.0807 7.44922 15.2793 7.29297 15.5527C7.13672 15.8262 7.11719 16.181 7.23438 16.6172L9.05078 23.3848C9.40885 24.7324 9.95898 25.8229 10.7012 26.6562C11.4434 27.4896 12.3385 28.043 13.3867 28.3164C14.4414 28.5833 15.6068 28.5475 16.8828 28.209ZM16.3555 26.207C15.3203 26.474 14.3535 26.4479 13.4551 26.1289C12.5566 25.8034 11.8503 25.2272 11.3359 24.4004C11.1992 24.2051 11.1862 24.0293 11.2969 23.873C11.4141 23.7168 11.6029 23.6549 11.8633 23.6875C12.6836 23.7656 13.4225 23.7396 14.0801 23.6094C14.7441 23.4792 15.2422 23.3685 15.5742 23.2773C15.9062 23.1862 16.388 23.0332 17.0195 22.8184C17.6576 22.597 18.3086 22.252 18.9727 21.7832C19.181 21.6204 19.373 21.5781 19.5488 21.6562C19.7246 21.7344 19.8092 21.8971 19.8027 22.1445C19.7702 23.1146 19.4447 23.9642 18.8262 24.6934C18.2077 25.416 17.3841 25.9206 16.3555 26.207ZM11.5801 19.9863C11.235 20.0775 11.0007 20.2109 10.877 20.3867C10.7533 20.5625 10.6198 20.6732 10.4766 20.7188C10.3724 20.7448 10.2715 20.7155 10.1738 20.6309C10.0762 20.5397 10.0013 20.403 9.94922 20.2207C9.82552 19.791 9.88086 19.3809 10.1152 18.9902C10.3496 18.5996 10.6849 18.349 11.1211 18.2383C11.5508 18.1081 11.9642 18.1569 12.3613 18.3848C12.765 18.6126 13.0189 18.9447 13.123 19.3809C13.1686 19.5566 13.1719 19.7064 13.1328 19.8301C13.0938 19.9538 13.0221 20.0286 12.918 20.0547C12.7682 20.0938 12.5957 20.071 12.4004 19.9863C12.2051 19.8952 11.9316 19.8952 11.5801 19.9863ZM17.3613 18.4141C17.0163 18.5052 16.7819 18.6387 16.6582 18.8145C16.541 18.9902 16.4076 19.1009 16.2578 19.1465C16.1536 19.179 16.0527 19.1497 15.9551 19.0586C15.8574 18.9674 15.7826 18.8307 15.7305 18.6484C15.6068 18.2253 15.6621 17.8184 15.8965 17.4277C16.1309 17.0306 16.4694 16.7799 16.9121 16.6758C17.3418 16.5456 17.7552 16.5944 18.1523 16.8223C18.5495 17.0436 18.8001 17.3724 18.9043 17.8086C18.9564 17.9844 18.9596 18.1341 18.9141 18.2578C18.875 18.3815 18.8034 18.4596 18.6992 18.4922C18.5495 18.5247 18.377 18.4987 18.1816 18.4141C17.9863 18.3229 17.7129 18.3229 17.3613 18.4141ZM26.6875 32.2812C25.2357 31.8841 24.0345 31.2754 23.084 30.4551C22.1335 29.6348 21.4727 28.6289 21.1016 27.4375L22.4297 25.0254C22.4232 26.4512 22.8236 27.6556 23.6309 28.6387C24.4447 29.6217 25.597 30.3184 27.0879 30.7285C28.377 31.0671 29.5456 31.1029 30.5938 30.8359C31.6419 30.569 32.5371 30.0189 33.2793 29.1855C34.0215 28.3587 34.5716 27.2682 34.9297 25.9141L36.7461 19.1562C36.8633 18.7135 36.8438 18.3522 36.6875 18.0723C36.5312 17.7923 36.2383 17.5938 35.8086 17.4766L26.1797 14.9082C25.75 14.791 25.3984 14.8138 25.125 14.9766C24.8516 15.1328 24.6562 15.429 24.5391 15.8652L22.8691 22.0859L22.2051 18.3164L23.0059 15.3867C23.2598 14.4557 23.6829 13.821 24.2754 13.4824C24.8678 13.1439 25.6328 13.0983 26.5703 13.3457L36.2383 15.9336C37.1823 16.1875 37.8268 16.6139 38.1719 17.2129C38.5234 17.8053 38.5755 18.5638 38.3281 19.4883L36.4922 26.3145C36.043 27.9876 35.3529 29.3385 34.4219 30.3672C33.4974 31.4023 32.3776 32.0859 31.0625 32.418C29.7474 32.75 28.2891 32.7044 26.6875 32.2812ZM26.375 21.9688C26.0104 21.8711 25.7305 21.6595 25.5352 21.334C25.3464 21.0085 25.3008 20.6634 25.3984 20.2988C25.5026 19.9342 25.7174 19.6576 26.043 19.4688C26.3685 19.2734 26.7103 19.2246 27.0684 19.3223C27.4395 19.4264 27.7194 19.6445 27.9082 19.9766C28.097 20.3021 28.1426 20.6471 28.0449 21.0117C27.9473 21.3763 27.7324 21.653 27.4004 21.8418C27.0749 22.0241 26.7331 22.0664 26.375 21.9688ZM32.1074 23.502C31.7428 23.3978 31.4661 23.1829 31.2773 22.8574C31.0885 22.5254 31.0462 22.1771 31.1504 21.8125C31.2415 21.4479 31.4499 21.1745 31.7754 20.9922C32.1009 20.8034 32.446 20.7578 32.8105 20.8555C33.1751 20.9531 33.4518 21.1647 33.6406 21.4902C33.8294 21.8158 33.875 22.1608 33.7773 22.5254C33.6797 22.89 33.4681 23.1667 33.1426 23.3555C32.8171 23.5443 32.472 23.5931 32.1074 23.502ZM27.9961 27.2422C27.4557 27.0924 26.9121 27.0176 26.3652 27.0176C25.8184 27.0111 25.2194 27.0794 24.5684 27.2227C24.3079 27.2812 24.1126 27.2194 23.9824 27.0371C23.8587 26.8548 23.8652 26.6595 24.002 26.4512C24.4642 25.7285 25.112 25.2272 25.9453 24.9473C26.7852 24.6673 27.6738 24.6543 28.6113 24.9082C29.5488 25.1491 30.3105 25.6016 30.8965 26.2656C31.4824 26.9232 31.7917 27.6816 31.8242 28.541C31.8372 28.8014 31.7461 28.974 31.5508 29.0586C31.3555 29.1497 31.1602 29.1074 30.9648 28.9316C30.457 28.4759 29.9688 28.1178 29.5 27.8574C29.0378 27.5905 28.5365 27.3854 27.9961 27.2422Z" fill="#2135FD"/>
</svg>
