<svg width="44" height="44" viewBox="0 0 44 44" fill="none" xmlns="http://www.w3.org/2000/svg">
<rect width="44" height="44" rx="22" fill="#E9EDFC"/>
<path d="M12.2539 30.1719V29.4395C12.2539 29.2246 12.3125 29.0586 12.4297 28.9414C12.5534 28.8177 12.7259 28.7559 12.9473 28.7559H13.5039V18.1895H12.6641C12.3646 18.1895 12.1302 18.0983 11.9609 17.916C11.7917 17.7272 11.707 17.5221 11.707 17.3008C11.707 16.9557 11.9023 16.6725 12.293 16.4512L20.7695 11.5586C21.1667 11.3177 21.5833 11.1973 22.0195 11.1973C22.4492 11.1973 22.8724 11.3177 23.2891 11.5586L31.7656 16.4512C32.1497 16.6725 32.3418 16.9557 32.3418 17.3008C32.3418 17.5221 32.2572 17.7272 32.0879 17.916C31.9251 18.0983 31.694 18.1895 31.3945 18.1895H30.5547V28.7559H31.1211C31.3359 28.7559 31.502 28.8177 31.6191 28.9414C31.7428 29.0586 31.8047 29.2246 31.8047 29.4395V30.1719H12.2539ZM15.125 28.7559H28.9238V16.8809L22.3711 13.1992C22.2474 13.1406 22.1302 13.1113 22.0195 13.1113C21.9089 13.1113 21.7982 13.1406 21.6875 13.1992L15.125 16.8809V28.7559ZM11.6777 32.7012C11.4368 32.7012 11.2285 32.6133 11.0527 32.4375C10.8835 32.2617 10.7988 32.0501 10.7988 31.8027C10.7988 31.5618 10.8835 31.3535 11.0527 31.1777C11.2285 31.0085 11.4368 30.9238 11.6777 30.9238H32.3027C32.5436 30.9238 32.752 31.0085 32.9277 31.1777C33.11 31.3535 33.2012 31.5618 33.2012 31.8027C33.2012 32.0501 33.11 32.2617 32.9277 32.4375C32.752 32.6133 32.5436 32.7012 32.3027 32.7012H11.6777ZM22.0195 26.0215C21.5768 26.0215 21.1406 25.9596 20.7109 25.8359C20.2878 25.7122 19.9167 25.5234 19.5977 25.2695C19.2786 25.0091 19.054 24.6803 18.9238 24.2832C18.8717 24.1335 18.8457 24.0098 18.8457 23.9121C18.8457 23.7298 18.9043 23.5866 19.0215 23.4824C19.1452 23.3783 19.2949 23.3262 19.4707 23.3262C19.6204 23.3262 19.7441 23.3652 19.8418 23.4434C19.9395 23.515 20.0208 23.6289 20.0859 23.7852C20.2552 24.2083 20.5026 24.5078 20.8281 24.6836C21.1536 24.8529 21.5605 24.9375 22.0488 24.9375C22.3678 24.9375 22.6706 24.8984 22.957 24.8203C23.25 24.7422 23.4876 24.6087 23.6699 24.4199C23.8522 24.2311 23.9434 23.9772 23.9434 23.6582C23.9434 23.2546 23.7806 22.9648 23.4551 22.7891C23.1296 22.6068 22.7552 22.4668 22.332 22.3691L21.4043 22.1543C20.9941 22.0566 20.6003 21.9199 20.2227 21.7441C19.8516 21.5684 19.5488 21.3275 19.3145 21.0215C19.0801 20.7155 18.9629 20.3184 18.9629 19.8301C18.9629 19.3158 19.1061 18.8796 19.3926 18.5215C19.679 18.1634 20.0566 17.8932 20.5254 17.7109C20.9941 17.5221 21.4922 17.4277 22.0195 17.4277C22.5078 17.4277 22.9831 17.5189 23.4453 17.7012C23.9141 17.877 24.2982 18.1243 24.5977 18.4434C24.9036 18.7624 25.0566 19.127 25.0566 19.5371C25.0566 19.7259 24.9915 19.8659 24.8613 19.957C24.7376 20.0482 24.6009 20.0938 24.4512 20.0938C24.3014 20.0938 24.1745 20.0547 24.0703 19.9766C23.9661 19.8984 23.8815 19.7812 23.8164 19.625C23.6797 19.2539 23.4583 18.9772 23.1523 18.7949C22.8464 18.6061 22.472 18.5117 22.0293 18.5117C21.7363 18.5117 21.4531 18.5573 21.1797 18.6484C20.9062 18.7331 20.6816 18.8665 20.5059 19.0488C20.3366 19.2246 20.252 19.4525 20.252 19.7324C20.252 19.9733 20.3171 20.1751 20.4473 20.3379C20.584 20.5007 20.7663 20.6341 20.9941 20.7383C21.2285 20.8359 21.4922 20.9173 21.7852 20.9824L22.7129 21.1973C23.1686 21.3014 23.5853 21.4447 23.9629 21.627C24.347 21.8027 24.653 22.0436 24.8809 22.3496C25.1087 22.6556 25.2227 23.0527 25.2227 23.541C25.2227 24.1139 25.0729 24.5827 24.7734 24.9473C24.474 25.3118 24.0801 25.582 23.5918 25.7578C23.1035 25.9336 22.5794 26.0215 22.0195 26.0215ZM22.0293 27.1543C21.9447 27.1543 21.8698 27.125 21.8047 27.0664C21.7461 27.0013 21.7168 26.9264 21.7168 26.8418V16.6074C21.7168 16.5293 21.7461 16.4577 21.8047 16.3926C21.8698 16.3275 21.9447 16.2949 22.0293 16.2949C22.1139 16.2949 22.1855 16.3275 22.2441 16.3926C22.3092 16.4577 22.3418 16.5293 22.3418 16.6074V26.8418C22.3418 26.9264 22.3092 27.0013 22.2441 27.0664C22.1855 27.125 22.1139 27.1543 22.0293 27.1543Z" fill="#2135FD"/>
</svg>
