<svg width="44" height="44" viewBox="0 0 44 44" fill="none" xmlns="http://www.w3.org/2000/svg">
<rect width="44" height="44" rx="22" fill="#E9EDFC"/>
<path d="M19.2148 24.3794V17.2144C19.2148 16.9748 19.3122 16.8175 19.5068 16.7427C19.7015 16.6678 19.8924 16.6865 20.0796 16.7988L26.0879 20.3364C26.2751 20.4412 26.3687 20.5947 26.3687 20.7969C26.3687 20.9915 26.2788 21.145 26.0991 21.2573L20.0796 24.8062C19.8924 24.911 19.7015 24.9259 19.5068 24.8511C19.3122 24.7687 19.2148 24.6115 19.2148 24.3794ZM11.1963 30.1182C10.3952 30.1182 9.76253 29.8898 9.29834 29.4331C8.84163 28.9689 8.61328 28.3325 8.61328 27.5239V14.0586C8.61328 13.25 8.84163 12.6174 9.29834 12.1606C9.76253 11.7039 10.3952 11.4756 11.1963 11.4756H32.7925C33.6011 11.4756 34.2337 11.7039 34.6904 12.1606C35.1546 12.6174 35.3867 13.25 35.3867 14.0586V27.5239C35.3867 28.3325 35.1546 28.9689 34.6904 29.4331C34.2337 29.8898 33.6011 30.1182 32.7925 30.1182H11.1963ZM11.23 28.3101H32.77C33.0171 28.3101 33.2118 28.2389 33.354 28.0967C33.5037 27.9469 33.5786 27.7485 33.5786 27.5015V14.0923C33.5786 13.8377 33.5037 13.6393 33.354 13.4971C33.2118 13.3548 33.0171 13.2837 32.77 13.2837H11.23C10.9829 13.2837 10.7845 13.3548 10.6348 13.4971C10.4925 13.6393 10.4214 13.8377 10.4214 14.0923V27.5015C10.4214 27.7485 10.4925 27.9469 10.6348 28.0967C10.7845 28.2389 10.9829 28.3101 11.23 28.3101ZM18.4512 32.791V29.9722H25.5488V32.791H18.4512ZM18.3838 34.105C18.1367 34.105 17.9233 34.0151 17.7437 33.8354C17.564 33.6632 17.4741 33.4499 17.4741 33.1953C17.4741 32.9408 17.564 32.7236 17.7437 32.5439C17.9233 32.3717 18.1367 32.2856 18.3838 32.2856H25.6162C25.8633 32.2856 26.0729 32.3717 26.2451 32.5439C26.4248 32.7236 26.5146 32.9408 26.5146 33.1953C26.5146 33.4499 26.4248 33.6632 26.2451 33.8354C26.0729 34.0151 25.8633 34.105 25.6162 34.105H18.3838Z" fill="#2135FD"/>
</svg>
