<svg width="44" height="44" viewBox="0 0 44 44" fill="none" xmlns="http://www.w3.org/2000/svg">
<rect width="44" height="44" rx="22" fill="#E9EDFC"/>
<path d="M14.0312 20.0547C14.0312 19.7878 14.1094 19.5762 14.2656 19.4199C14.4219 19.2637 14.64 19.1855 14.9199 19.1855H16.5605V17.5938C16.5605 17.3203 16.6387 17.1055 16.7949 16.9492C16.9512 16.7865 17.1595 16.7051 17.4199 16.7051C17.6868 16.7051 17.8952 16.7865 18.0449 16.9492C18.2012 17.1055 18.2793 17.3203 18.2793 17.5938V19.1855H19.832C20.125 19.1855 20.3561 19.2637 20.5254 19.4199C20.6947 19.5762 20.7793 19.7878 20.7793 20.0547C20.7793 20.3216 20.6947 20.5365 20.5254 20.6992C20.3561 20.8555 20.125 20.9336 19.832 20.9336H18.2793V22.5254C18.2793 22.7988 18.2012 23.0169 18.0449 23.1797C17.8952 23.3424 17.6868 23.4238 17.4199 23.4238C17.1595 23.4238 16.9512 23.3424 16.7949 23.1797C16.6387 23.0169 16.5605 22.7988 16.5605 22.5254V20.9336H14.9199C14.64 20.9336 14.4219 20.8555 14.2656 20.6992C14.1094 20.5365 14.0312 20.3216 14.0312 20.0547ZM28.0938 19.9766C27.6901 19.9766 27.3451 19.8366 27.0586 19.5566C26.7786 19.2767 26.6387 18.9349 26.6387 18.5312C26.6387 18.1211 26.7786 17.776 27.0586 17.4961C27.3451 17.2096 27.6901 17.0664 28.0938 17.0664C28.4974 17.0664 28.8424 17.2096 29.1289 17.4961C29.4154 17.776 29.5586 18.1211 29.5586 18.5312C29.5586 18.9349 29.4154 19.2767 29.1289 19.5566C28.8424 19.8366 28.4974 19.9766 28.0938 19.9766ZM25.1934 22.9062C24.7962 22.9062 24.4544 22.7663 24.168 22.4863C23.8815 22.1999 23.7383 21.8581 23.7383 21.4609C23.7383 21.0573 23.8815 20.7122 24.168 20.4258C24.4544 20.1393 24.7962 19.9961 25.1934 19.9961C25.597 19.9961 25.9421 20.1393 26.2285 20.4258C26.515 20.7122 26.6582 21.0573 26.6582 21.4609C26.6582 21.8581 26.515 22.1999 26.2285 22.4863C25.9421 22.7663 25.597 22.9062 25.1934 22.9062ZM7.70312 27.0957C7.70312 26.5879 7.75521 26.0443 7.85938 25.4648C7.97005 24.8854 8.12305 24.2734 8.31836 23.6289C8.51367 22.9583 8.75456 22.2292 9.04102 21.4414C9.32747 20.6471 9.63346 19.8496 9.95898 19.0488C10.291 18.2415 10.623 17.4863 10.9551 16.7832C11.235 16.1908 11.502 15.6927 11.7559 15.2891C12.0163 14.8854 12.3451 14.5534 12.7422 14.293C13.1393 14.0326 13.6927 13.821 14.4023 13.6582C15.3464 13.4434 16.4564 13.2741 17.7324 13.1504C19.0085 13.0202 20.431 12.9551 22 12.9551C23.569 12.9551 24.9915 13.0202 26.2676 13.1504C27.5436 13.2741 28.6504 13.4434 29.5879 13.6582C30.304 13.821 30.8607 14.0326 31.2578 14.293C31.6549 14.5534 31.9805 14.8854 32.2344 15.2891C32.4883 15.6927 32.7585 16.1908 33.0449 16.7832C33.377 17.4863 33.7057 18.2415 34.0312 19.0488C34.3633 19.8496 34.6725 20.6471 34.959 21.4414C35.2454 22.2292 35.4863 22.9583 35.6816 23.6289C35.877 24.2734 36.0267 24.8854 36.1309 25.4648C36.2415 26.0443 36.2969 26.5879 36.2969 27.0957C36.2969 27.89 36.1341 28.5768 35.8086 29.1562C35.4896 29.7357 35.0404 30.1816 34.4609 30.4941C33.888 30.8066 33.2272 30.9629 32.4785 30.9629C31.8405 30.9629 31.2383 30.8294 30.6719 30.5625C30.112 30.2956 29.6139 29.9082 29.1777 29.4004L27.4395 27.3789C27.3092 27.2292 27.179 27.1217 27.0488 27.0566C26.9186 26.9915 26.7786 26.959 26.6289 26.959H17.3711C17.2214 26.959 17.0814 26.9915 16.9512 27.0566C16.821 27.1217 16.6908 27.2292 16.5605 27.3789L14.8223 29.4004C14.3861 29.9147 13.8848 30.3021 13.3184 30.5625C12.7585 30.8294 12.1595 30.9629 11.5215 30.9629C10.7663 30.9629 10.1022 30.8066 9.5293 30.4941C8.95638 30.1816 8.50716 29.7357 8.18164 29.1562C7.86263 28.5768 7.70312 27.89 7.70312 27.0957ZM9.50977 27.0859C9.50977 27.7174 9.70508 28.2155 10.0957 28.5801C10.4863 28.9447 10.9746 29.127 11.5605 29.127C11.9121 29.127 12.2572 29.0391 12.5957 28.8633C12.9342 28.6875 13.2435 28.4368 13.5234 28.1113L15.4668 25.8848C15.7077 25.6048 15.9486 25.3997 16.1895 25.2695C16.4303 25.1328 16.7624 25.0645 17.1855 25.0645H26.8047C27.2279 25.0645 27.5599 25.1328 27.8008 25.2695C28.0482 25.3997 28.2923 25.6048 28.5332 25.8848L30.4766 28.1113C31.0625 28.7884 31.7135 29.127 32.4297 29.127C33.0156 29.127 33.5039 28.9447 33.8945 28.5801C34.2917 28.2155 34.4902 27.7174 34.4902 27.0859C34.4902 26.793 34.4544 26.4577 34.3828 26.0801C34.3112 25.7025 34.2005 25.2565 34.0508 24.7422C33.8229 23.987 33.556 23.1829 33.25 22.3301C32.9505 21.4707 32.6315 20.6178 32.293 19.7715C31.9544 18.9251 31.6159 18.1439 31.2773 17.4277C31.1146 17.0892 30.9616 16.7962 30.8184 16.5488C30.6816 16.2949 30.5026 16.0866 30.2812 15.9238C30.0664 15.7611 29.7669 15.6341 29.3828 15.543C28.4844 15.3281 27.4134 15.1589 26.1699 15.0352C24.9264 14.9049 23.5365 14.8398 22 14.8398C20.4635 14.8398 19.0736 14.9049 17.8301 15.0352C16.5866 15.1589 15.5156 15.3281 14.6172 15.543C14.2266 15.6341 13.9206 15.7611 13.6992 15.9238C13.4844 16.0866 13.3053 16.2949 13.1621 16.5488C13.0189 16.7962 12.8724 17.0892 12.7227 17.4277C12.3971 18.1439 12.0618 18.9251 11.7168 19.7715C11.3717 20.6178 11.0462 21.4707 10.7402 22.3301C10.4342 23.1829 10.1706 23.987 9.94922 24.7422C9.79948 25.2565 9.6888 25.7025 9.61719 26.0801C9.54557 26.4577 9.50977 26.793 9.50977 27.0859Z" fill="#2135FD"/>
</svg>
