<svg width="44" height="44" viewBox="0 0 44 44" fill="none" xmlns="http://www.w3.org/2000/svg">
<rect width="44" height="44" rx="22" fill="#E9EDFC"/>
<path d="M22 33.2178C21.2214 33.2178 20.4876 32.9482 19.7988 32.4092C19.1175 31.8701 18.5148 31.1139 17.9907 30.1406C17.4741 29.1673 17.0661 28.0256 16.7666 26.7153C16.4746 25.3976 16.3286 23.9639 16.3286 22.4141C16.3286 20.8643 16.4746 19.4305 16.7666 18.1128C17.0661 16.7876 17.4741 15.6383 17.9907 14.665C18.5073 13.6842 19.1063 12.9243 19.7876 12.3853C20.4764 11.8462 21.2139 11.5767 22 11.5767C22.7861 11.5767 23.5199 11.8462 24.2012 12.3853C24.89 12.9243 25.4927 13.6842 26.0093 14.665C26.5334 15.6383 26.9414 16.7876 27.2334 18.1128C27.5254 19.4305 27.6714 20.8643 27.6714 22.4141C27.6714 23.9639 27.5216 25.3976 27.2222 26.7153C26.9302 28.0256 26.5221 29.1673 25.998 30.1406C25.4814 31.1139 24.8787 31.8701 24.1899 32.4092C23.5086 32.9482 22.7786 33.2178 22 33.2178ZM22 12.9355C21.4535 12.9355 20.9294 13.1901 20.4277 13.6992C19.9261 14.2008 19.4806 14.8896 19.0913 15.7656C18.702 16.6416 18.395 17.6523 18.1704 18.7979C17.9458 19.9359 17.8335 21.1413 17.8335 22.4141C17.8335 23.6719 17.9458 24.866 18.1704 25.9966C18.395 27.1271 18.702 28.1341 19.0913 29.0176C19.4806 29.8936 19.9261 30.5824 20.4277 31.084C20.9294 31.5931 21.4535 31.8477 22 31.8477C22.5465 31.8477 23.0706 31.5931 23.5723 31.084C24.0739 30.5824 24.5194 29.8936 24.9087 29.0176C25.298 28.1341 25.605 27.1271 25.8296 25.9966C26.0542 24.866 26.1665 23.6719 26.1665 22.4141C26.1665 21.1413 26.0542 19.9359 25.8296 18.7979C25.605 17.6523 25.298 16.6416 24.9087 15.7656C24.5194 14.8896 24.0739 14.2008 23.5723 13.6992C23.0706 13.1901 22.5465 12.9355 22 12.9355ZM21.27 11.7339H22.7412V33.0044H21.27V11.7339ZM22 26.6143C23.153 26.6143 24.2461 26.7116 25.2793 26.9062C26.3125 27.0934 27.2409 27.3667 28.0645 27.7261C28.8955 28.078 29.5731 28.4935 30.0972 28.9727L28.9629 29.9048C28.4688 29.5155 27.8735 29.186 27.1772 28.9165C26.4884 28.6395 25.7061 28.4336 24.8301 28.2988C23.9616 28.1566 23.0182 28.0854 22 28.0854C20.9818 28.0854 20.0347 28.1566 19.1587 28.2988C18.2902 28.4336 17.5078 28.6395 16.8115 28.9165C16.1227 29.186 15.5312 29.5155 15.0371 29.9048L13.9028 28.9727C14.4269 28.4935 15.1007 28.078 15.9243 27.7261C16.7554 27.3667 17.6875 27.0934 18.7207 26.9062C19.7539 26.7116 20.847 26.6143 22 26.6143ZM32.3657 21.6504V23.1216H11.6343V21.6504H32.3657ZM22 18.2251C20.847 18.2251 19.7539 18.1315 18.7207 17.9443C17.6875 17.7497 16.7554 17.4764 15.9243 17.1245C15.1007 16.7651 14.4269 16.3459 13.9028 15.8667L15.0371 14.9346C15.5312 15.3239 16.1227 15.6571 16.8115 15.9341C17.5078 16.2036 18.2902 16.4095 19.1587 16.5518C20.0347 16.6865 20.9818 16.7539 22 16.7539C23.0182 16.7539 23.9616 16.6865 24.8301 16.5518C25.7061 16.4095 26.4884 16.2036 27.1772 15.9341C27.8735 15.6571 28.4688 15.3239 28.9629 14.9346L30.0972 15.8667C29.5731 16.3459 28.8955 16.7651 28.0645 17.1245C27.2409 17.4764 26.3125 17.7497 25.2793 17.9443C24.2461 18.1315 23.153 18.2251 22 18.2251ZM22 33.8467C20.4202 33.8467 18.9378 33.5472 17.5527 32.9482C16.1676 32.3568 14.951 31.5369 13.9028 30.4888C12.8547 29.4406 12.0311 28.224 11.4321 26.8389C10.8407 25.4538 10.5449 23.9714 10.5449 22.3916C10.5449 20.8118 10.8407 19.3294 11.4321 17.9443C12.0311 16.5592 12.8547 15.3426 13.9028 14.2944C14.951 13.2388 16.1676 12.4152 17.5527 11.8237C18.9378 11.2323 20.4202 10.9365 22 10.9365C23.5798 10.9365 25.0622 11.2323 26.4473 11.8237C27.8324 12.4152 29.049 13.2388 30.0972 14.2944C31.1453 15.3426 31.9652 16.5592 32.5566 17.9443C33.1556 19.3294 33.4551 20.8118 33.4551 22.3916C33.4551 23.9714 33.1556 25.4538 32.5566 26.8389C31.9652 28.224 31.1453 29.4406 30.0972 30.4888C29.049 31.5369 27.8324 32.3568 26.4473 32.9482C25.0622 33.5472 23.5798 33.8467 22 33.8467ZM22 32.3193C23.3701 32.3193 24.6541 32.061 25.8521 31.5444C27.05 31.0278 28.1056 30.3166 29.019 29.4106C29.9325 28.4972 30.6437 27.4416 31.1528 26.2437C31.6694 25.0457 31.9277 23.7617 31.9277 22.3916C31.9277 21.0215 31.6694 19.7375 31.1528 18.5396C30.6437 17.3341 29.9325 16.2785 29.019 15.3726C28.1056 14.4591 27.05 13.7479 25.8521 13.2388C24.6541 12.7222 23.3701 12.4639 22 12.4639C20.6299 12.4639 19.3459 12.7222 18.1479 13.2388C16.95 13.7479 15.8944 14.4591 14.981 15.3726C14.0675 16.2785 13.3525 17.3341 12.8359 18.5396C12.3268 19.7375 12.0723 21.0215 12.0723 22.3916C12.0723 23.7617 12.3268 25.0457 12.8359 26.2437C13.3525 27.4416 14.0675 28.4972 14.981 29.4106C15.8944 30.3166 16.95 31.0278 18.1479 31.5444C19.3459 32.061 20.6299 32.3193 22 32.3193Z" fill="#2135FD"/>
</svg>
