<svg width="44" height="44" viewBox="0 0 44 44" fill="none" xmlns="http://www.w3.org/2000/svg">
<rect width="44" height="44" rx="22" fill="#E9EDFC"/>
<path d="M9.60742 28.9219C9.60742 28.4987 9.7181 28.0885 9.93945 27.6914C10.1673 27.2878 10.5059 26.959 10.9551 26.7051L22 20.5039L33.0449 26.7051C33.4941 26.959 33.8294 27.2878 34.0508 27.6914C34.2786 28.0885 34.3926 28.4987 34.3926 28.9219C34.3926 29.4883 34.2005 29.9863 33.8164 30.416C33.4388 30.8457 32.9017 31.0605 32.2051 31.0605H11.8047C11.1016 31.0605 10.5579 30.8457 10.1738 30.416C9.79622 29.9863 9.60742 29.4883 9.60742 28.9219ZM11.5898 28.7754C11.5898 28.9056 11.6289 29.0163 11.707 29.1074C11.7917 29.1986 11.9251 29.2441 12.1074 29.2441H31.8828C32.0651 29.2441 32.1986 29.1986 32.2832 29.1074C32.3743 29.0163 32.4199 28.9056 32.4199 28.7754C32.4199 28.541 32.2865 28.349 32.0195 28.1992L22 22.584L11.9805 28.1992C11.7201 28.349 11.5898 28.541 11.5898 28.7754ZM21.1113 21.5293V20.3574C21.1113 19.9082 21.1764 19.5208 21.3066 19.1953C21.4368 18.8698 21.6061 18.5898 21.8145 18.3555C22.0293 18.1146 22.2572 17.903 22.498 17.7207C22.7389 17.5319 22.9635 17.3496 23.1719 17.1738C23.5039 16.9069 23.8001 16.6139 24.0605 16.2949C24.321 15.9694 24.4512 15.5267 24.4512 14.9668C24.4512 14.3092 24.2298 13.7819 23.7871 13.3848C23.3444 12.9811 22.7617 12.7793 22.0391 12.7793C21.3424 12.7793 20.776 13.0169 20.3398 13.4922C19.9102 13.9674 19.6921 14.5924 19.6855 15.3672C19.6725 15.5951 19.5846 15.7904 19.4219 15.9531C19.2656 16.1094 19.0638 16.1875 18.8164 16.1875C18.569 16.1875 18.3607 16.1029 18.1914 15.9336C18.0286 15.7578 17.9473 15.5267 17.9473 15.2402C17.9473 14.4069 18.1165 13.6745 18.4551 13.043C18.8001 12.4049 19.2786 11.9134 19.8906 11.5684C20.5091 11.2168 21.2253 11.041 22.0391 11.041C22.8659 11.041 23.5885 11.2038 24.207 11.5293C24.8255 11.8548 25.3073 12.3138 25.6523 12.9062C25.9974 13.4987 26.1699 14.1888 26.1699 14.9766C26.1699 15.6081 26.056 16.1484 25.8281 16.5977C25.6068 17.0404 25.3333 17.4212 25.0078 17.7402C24.6823 18.0592 24.3665 18.3424 24.0605 18.5898C23.6699 18.8958 23.377 19.1693 23.1816 19.4102C22.9863 19.651 22.8887 19.9831 22.8887 20.4062V21.5293H21.1113Z" fill="#2135FD"/>
</svg>
